<?xml version="1.0" encoding="UTF-8" standalone="no"?>
<!-- Created with Inkscape (http://www.inkscape.org/) -->

<svg
   version="1.1"
   id="svg2"
   width="252.73529"
   height="250.88422"
   viewBox="0 0 252.73529 250.88422"
   sodipodi:docname="v982-d4-01.eps"
   xml:space="preserve"
   xmlns:inkscape="http://www.inkscape.org/namespaces/inkscape"
   xmlns:sodipodi="http://sodipodi.sourceforge.net/DTD/sodipodi-0.dtd"
   xmlns="http://www.w3.org/2000/svg"
   xmlns:svg="http://www.w3.org/2000/svg"><defs
     id="defs6" /><sodipodi:namedview
     id="namedview4"
     pagecolor="#ffffff"
     bordercolor="#000000"
     borderopacity="0.25"
     inkscape:showpageshadow="2"
     inkscape:pageopacity="0.0"
     inkscape:pagecheckerboard="0"
     inkscape:deskcolor="#d1d1d1"
     showgrid="false" /><path
     d="m 126.40359,22.609226 c 33.7387,0 37.7433,0.2026 51.0733,0.7289 34.2447,1.5394 50.2287,17.6783 51.7958,51.4288 0.6539,13.224 0.7289,17.1881 0.7289,50.688204 0,33.52391 -0.1822,37.48931 -0.7289,50.71251 -1.5617,33.7128 -17.5264,49.8731 -51.8076,51.4287 -13.3182,0.6485 -17.311,0.7289 -51.0615,0.7289 -33.737697,0 -37.743397,-0.2026 -51.047697,-0.7289 -34.3454,-1.5556 -50.2544,-17.7653 -51.8087,-51.4404 -0.6538,-13.2245 -0.7288,-17.1894 -0.7288,-50.70081 0,-33.500104 0.1822,-37.464204 0.7288,-50.688204 1.5618,-33.7505 17.5254,-49.8983 51.8087,-51.441 13.3172,-0.6484 17.31,-0.7288 51.047697,-0.7288 z m 0,-22.609200355469 C 92.084893,2.5644531e-5 87.787693,0.20262564 74.306493,0.72892564 28.425393,2.8234256 2.9122926,28.105926 0.8145926,73.712826 c -0.6538,13.3868 -0.8146000023438,17.6532 -0.8146000023438,51.729704 0,34.07701 0.1822000023438,38.35431 0.7289000023438,51.72901 2.1137,45.5695 27.5722004,70.8876 73.5037004,72.9838 13.4833,0.6485 17.7783,0.7289 52.098097,0.7289 34.3186,0 38.6287,-0.2026 52.0981,-0.7289 45.8554,-2.0985 71.4188,-27.3767 73.4919,-72.9838 0.6538,-13.3747 0.8146,-17.652 0.8146,-51.72901 0,-34.076504 -0.1822,-38.342904 -0.7289,-51.716804 -2.0548,-45.5322 -27.5475,-70.8889004 -73.493,-72.99680036 -13.4811,-0.6485 -17.7901,-0.728899995469 -52.1098,-0.728899995469 z m 0,61.039200355469 a 64.88587,64.426812 0 1 0 0,128.853414 64.88587,64.426812 0 0 0 0,-128.853414 z m 0,106.244414 a 42.115762,41.817803 0 1 1 0,-83.635314 42.115762,41.817803 0 0 1 0,83.635314 z m 67.4507,-123.834414 a 15.163203,15.055927 0 1 0 0,30.1116 15.163203,15.055927 0 0 0 0,-30.1116 z"
     fill="#2c7566"
     fill-rule="nonzero"
     id="path7648-9"
     style="fill:#ff0080;fill-opacity:1;stroke-width:12.5913" /></svg>
