<?xml version="1.0" encoding="UTF-8" standalone="no"?>
<!-- Created with Inkscape (http://www.inkscape.org/) -->

<svg
   width="117.5328mm"
   height="29.887146mm"
   viewBox="0 0 117.5328 29.887146"
   version="1.1"
   id="svg5"
   xmlns:inkscape="http://www.inkscape.org/namespaces/inkscape"
   xmlns:sodipodi="http://sodipodi.sourceforge.net/DTD/sodipodi-0.dtd"
   xmlns="http://www.w3.org/2000/svg"
   xmlns:svg="http://www.w3.org/2000/svg">
  <sodipodi:namedview
     id="namedview7"
     pagecolor="#ffffff"
     bordercolor="#000000"
     borderopacity="0.25"
     inkscape:showpageshadow="2"
     inkscape:pageopacity="0.0"
     inkscape:pagecheckerboard="0"
     inkscape:deskcolor="#d1d1d1"
     inkscape:document-units="mm"
     showgrid="false" />
  <defs
     id="defs2">
    <rect
       x="-683.38092"
       y="1177.0782"
       width="1377.1136"
       height="698.91943"
       id="rect236" />
  </defs>
  <g
     inkscape:label="Layer 1"
     inkscape:groupmode="layer"
     id="layer1"
     transform="translate(-47.80317,-99.151853)">
    <g
       id="g720"
       inkscape:export-filename="logo.svg"
       inkscape:export-xdpi="96"
       inkscape:export-ydpi="96">
      <g
         aria-label="Kuya SEO"
         transform="matrix(0.26458333,0,0,0.26458333,225.81389,-202.85381)"
         id="text234"
         style="font-size:97.1049px;line-height:0.47;font-family:Medel;-inkscape-font-specification:'Medel, Normal';white-space:pre;shape-inside:url(#rect236);fill:#333333;stroke-width:3.49228">
        <g
           id="g900">
          <rect
             style="fill:#999999;stroke-width:0.923999"
             id="rect610"
             width="59.84811"
             height="29.887133"
             x="105.48788"
             y="99.151855"
             transform="matrix(3.7795276,0,0,3.7795276,-853.46983,766.69158)" />
          <path
             d="m -626.6716,1228.3537 q -3.20446,0 -6.21471,-1.2623 -2.91315,-1.2624 -5.14656,-3.5929 l -27.09227,-27.8691 h -0.58263 v 32.7243 h -7.08866 v -67.8763 q 2.91315,0 4.95235,2.1363 2.13631,2.0392 2.13631,4.9524 v 22.9167 h 0.48553 l 30.39383,-30.0054 h 10.0018 l -33.30698,32.5301 34.86066,35.3462 z"
             style="fill:#000080"
             id="path780" />
          <path
             d="m -582.29474,1188.5407 q 0,-2.816 1.9421,-4.7581 2.0392,-1.9421 4.75814,-1.9421 v 46.319 h -6.60313 v -8.4481 q -5.43788,9.3221 -15.92521,9.3221 -8.35102,0 -12.91495,-5.0495 -4.56393,-5.1465 -4.56393,-13.4976 v -28.6459 q 2.81604,0 4.75814,1.9421 1.9421,1.9421 1.9421,4.7581 v 20.2949 q 0,6.409 3.30157,10.2932 3.30156,3.7871 9.51628,3.7871 6.0205,0 9.9047,-4.1756 3.88419,-4.1755 3.88419,-10.3902 z"
             style="fill:#000080"
             id="path782" />
          <path
             d="m -545.49215,1244.6674 q -1.35947,3.0102 -4.17551,4.7581 -2.81604,1.845 -6.11761,1.845 l 11.9439,-25.927 -21.07176,-43.2117 q 3.59288,0 6.60313,1.9421 3.01026,1.9421 4.56393,5.1466 l 13.59469,28.743 16.11941,-35.8317 h 7.28287 z"
             style="fill:#000080"
             id="path784" />
          <path
             d="m -473.63453,1189.9973 q 0.67973,1.6508 0.97104,3.8842 0.38842,2.2334 0.38842,3.7871 v 29.9083 q -2.71893,0 -4.66103,-1.9421 -1.9421,-1.9421 -1.9421,-4.661 v -1.5537 q -5.72919,8.9336 -15.63389,8.9336 -6.99155,0 -11.26417,-3.7871 -4.27261,-3.8842 -4.27261,-9.8076 v -0.5826 q 0,-6.8944 5.53498,-10.0989 5.53498,-3.2045 12.72074,-3.2045 h 6.79734 q 0,0.4856 -0.38842,1.7479 -0.29131,1.2624 -1.55368,2.5248 -1.16525,1.2623 -3.39867,1.2623 h -1.55368 q -4.56393,0 -7.9626,1.845 -3.39867,1.7479 -3.39867,5.9234 0,3.7871 2.81604,6.0205 2.81605,2.1363 7.08866,2.1363 6.21471,0 10.29312,-3.9813 4.17551,-3.9813 4.17551,-10.2931 v -10.2931 q 0,-5.6321 -3.01025,-8.4481 -3.01025,-2.8161 -8.83655,-2.8161 -4.56393,0 -7.47707,2.1363 -2.81605,2.0392 -4.07841,5.2437 l -6.40892,-2.0392 q 1.74789,-4.3697 6.31182,-7.8655 4.56393,-3.4958 11.84679,-3.4958 6.79735,0 10.87575,2.6219 4.17551,2.6218 6.02051,6.8944 z"
             style="fill:#000080"
             id="path786" />
          <path
             d="m -397.6016,1196.6004 q 3.10736,2.9132 4.46683,6.409 1.35946,3.3986 1.35946,6.1176 0,6.0205 -3.01025,10.5844 -2.91315,4.4668 -8.0597,6.8944 -5.14656,2.4277 -11.55549,2.4277 -6.31182,0 -11.65258,-2.719 -5.24367,-2.816 -8.54524,-7.1857 -3.20446,-4.4669 -3.68998,-9.3221 0.97105,-0.2913 2.0392,-0.2913 2.0392,0 3.8842,1.1652 1.84499,1.0682 2.91314,2.9132 2.33052,3.9813 6.40893,6.4089 4.0784,2.3305 8.64233,2.3305 6.31182,0 10.77865,-3.2044 4.56393,-3.2045 4.56393,-9.1279 0,-5.3408 -3.68999,-8.1568 -3.68999,-2.9132 -8.44813,-3.8842 l -9.03075,-1.845 q -2.91315,-0.5826 -6.0205,-1.9421 -3.01026,-1.4566 -5.43788,-3.7871 -4.75814,-4.4668 -4.75814,-11.7497 0,-5.6321 2.91315,-9.9047 3.01025,-4.2726 7.9626,-6.6031 4.95235,-2.4276 10.58443,-2.4276 6.89445,0 11.65259,2.4276 4.85525,2.4276 7.37997,6.2147 2.62184,3.69 3.39867,7.6713 l -0.48552,0.097 q -1.16526,0.1942 -1.84499,0.1942 -1.9421,0 -3.59288,-0.7768 -1.65079,-0.874 -2.71894,-2.4277 -4.95235,-6.8944 -13.7889,-6.8944 -0.87394,0 -2.81604,0.1942 -4.75814,0.4855 -8.15681,3.8842 -3.39867,3.3987 -3.39867,8.1568 0,3.8842 2.42762,6.7974 2.52473,2.816 7.47708,3.787 l 8.64233,1.6508 q 4.07841,0.7769 7.28287,2.1363 3.30157,1.3595 5.9234,3.7871 z"
             style="fill:#ffffff"
             id="path788" />
          <path
             d="m -335.35749,1228.3537 h -42.82326 v -67.8763 h 42.53194 v 6.6031 h -35.44329 v 23.4994 h 28.06332 q 0,2.719 -1.9421,4.6611 -1.84499,1.9421 -4.56393,1.9421 h -21.55729 v 24.5675 h 35.73461 z"
             style="fill:#ffffff"
             id="path790" />
          <path
             d="m -290.88356,1159.7977 q 9.51628,0 17.28467,4.5639 7.76839,4.5639 12.23522,12.4294 4.46682,7.8655 4.46682,17.3818 0,9.6134 -4.46682,17.6731 -4.46683,7.9626 -12.33232,12.6236 -7.7684,4.564 -17.47888,4.564 -9.51628,0 -17.28468,-4.564 -7.76839,-4.5639 -12.23521,-12.4294 -4.46683,-7.8655 -4.46683,-17.3818 0,-9.6134 4.46683,-17.576 4.46682,-8.0597 12.23521,-12.6236 7.8655,-4.661 17.57599,-4.661 z m 0,62.5355 q 7.57418,0 13.59469,-3.69 6.1176,-3.787 9.51628,-10.0989 3.49577,-6.3118 3.49577,-13.886 0,-7.5741 -3.49577,-14.0802 -3.39868,-6.506 -9.61339,-10.2931 -6.11761,-3.8842 -13.78889,-3.8842 -7.67129,0 -13.7889,3.7871 -6.0205,3.69 -9.41918,10.0989 -3.39867,6.3118 -3.39867,13.886 0,7.6713 3.39867,14.1773 3.49578,6.4089 9.61339,10.196 6.11761,3.7871 13.886,3.7871 z"
             style="fill:#ffffff"
             id="path792" />
        </g>
      </g>
    </g>
  </g>
</svg>
