<?xml version="1.0" encoding="UTF-8" standalone="no"?>
<!-- Created with Inkscape (http://www.inkscape.org/) -->

<svg
   width="133.64455mm"
   height="133.87357mm"
   viewBox="0 0 133.64455 133.87357"
   version="1.1"
   id="svg5"
   xml:space="preserve"
   xmlns:inkscape="http://www.inkscape.org/namespaces/inkscape"
   xmlns:sodipodi="http://sodipodi.sourceforge.net/DTD/sodipodi-0.dtd"
   xmlns="http://www.w3.org/2000/svg"
   xmlns:svg="http://www.w3.org/2000/svg"><sodipodi:namedview
     id="namedview7"
     pagecolor="#ffffff"
     bordercolor="#000000"
     borderopacity="0.25"
     inkscape:showpageshadow="2"
     inkscape:pageopacity="0.0"
     inkscape:pagecheckerboard="0"
     inkscape:deskcolor="#d1d1d1"
     inkscape:document-units="mm"
     showgrid="false" /><defs
     id="defs2" /><g
     inkscape:label="Layer 1"
     inkscape:groupmode="layer"
     id="layer1"
     transform="translate(207.22814,-262.33102)"><path
       style="fill:#24009c;fill-opacity:1;stroke-width:0.261856"
       d="m -115.11975,396.03981 c -12.89324,-1.74377 -28.58402,-8.93292 -43.59897,-19.97606 -16.67715,-12.26565 -32.33308,-30.93516 -40.8752,-48.74323 -5.72967,-11.94482 -8.16068,-21.54203 -7.53974,-29.76547 0.33378,-4.42034 1.42352,-7.56073 3.74604,-10.79518 1.91921,-2.67279 12.86118,-13.553 14.76845,-14.68509 3.1549,-1.87264 7.10764,-2.49013 10.15227,-1.58597 3.21186,0.95382 3.95286,1.57065 14.13227,11.76418 7.93626,7.94726 9.85354,10.00601 10.53152,11.30856 2.66592,5.12183 2.03195,9.94794 -1.94706,14.82203 -0.786,0.96281 -3.31532,3.58883 -5.6207,5.83558 l -4.1916,4.08502 1.47219,2.78156 c 6.01276,11.36047 21.2769,26.45296 32.43758,32.07281 l 2.0588,1.03669 5.40409,-5.34154 c 2.97224,-2.93785 5.94376,-5.65548 6.60336,-6.03918 4.12993,-2.40244 8.8671,-2.40643 13.05093,-0.011 0.70496,0.40361 5.144667,4.63946 10.771197,10.27661 8.448237,8.46417 9.682685,9.80516 10.515438,11.42297 1.230243,2.39001 1.557075,3.69034 1.557075,6.19493 0,2.52631 -0.69022,4.75982 -2.186204,7.0744 -1.019776,1.57779 -9.626939,10.58599 -12.911839,13.51345 -1.83093,1.63169 -5.982157,3.7691 -8.510307,4.38183 -2.09254,0.50716 -7.34835,0.70631 -9.81959,0.37208 z m 7.58925,-7.71145 c 2.13866,-0.45301 4.17981,-1.39501 5.56484,-2.56817 2.412607,-2.04355 11.566233,-11.67114 12.110028,-12.73707 0.721638,-1.41452 0.767078,-3.21605 0.116526,-4.61986 -0.554223,-1.19595 -16.885194,-17.7818 -18.682754,-18.97433 -0.92073,-0.61082 -1.44613,-0.76809 -2.56609,-0.76809 -0.78378,0 -1.77996,0.18915 -2.24635,0.42652 -0.46091,0.23459 -3.48931,3.04645 -6.72978,6.24859 -3.24046,3.20214 -6.30417,6.03494 -6.80825,6.2951 -0.571,0.29471 -1.52376,0.48101 -2.52742,0.49419 -1.48473,0.0195 -1.86424,-0.10931 -4.84433,-1.64441 -3.57944,-1.84382 -8.77048,-5.1855 -11.91926,-7.67289 -10.82367,-8.55018 -20.86614,-20.22602 -25.63886,-29.80895 -1.29514,-2.60044 -1.51639,-3.26389 -1.62149,-4.86213 -0.0935,-1.42215 -0.0161,-2.05892 0.33405,-2.74949 0.25066,-0.49428 3.07694,-3.49107 6.28064,-6.65952 6.13306,-6.0656 6.94528,-7.14015 6.9404,-9.18216 -0.002,-0.65939 -0.27663,-1.50149 -0.76416,-2.33949 -1.05489,-1.81322 -17.87444,-18.5555 -19.19146,-19.10331 -1.35624,-0.56412 -2.95833,-0.50505 -4.28599,0.15802 -0.71888,0.35902 -3.3484,2.80156 -7.25896,6.74278 -6.66281,6.71504 -7.43249,7.78356 -8.07147,11.20521 -0.43107,2.30835 -0.14262,8.38696 0.53193,11.20967 1.62989,6.82041 5.20167,15.58706 9.17511,22.51959 8.66904,15.12502 21.31514,29.41994 35.2784,39.87803 17.03202,12.75652 36.90514,20.61336 46.8247,18.51217 z m 4.3438,-61.86019 c -1.32396,-0.6751 -1.77337,-1.47342 -2.50651,-4.4525 -1.82421,-7.41251 -5.07025,-13.15153 -10.27831,-18.17211 -4.918,-4.74097 -10.37367,-7.70892 -17.07509,-9.28907 -3.0788,-0.72595 -3.73311,-1.05833 -4.47332,-2.27231 -1.42984,-2.34501 0.42131,-5.67864 3.15379,-5.67945 1.17341,-3.4e-4 6.39248,1.32518 8.77217,2.22794 10.79123,4.0938 19.82275,12.58701 24.56343,23.09938 1.916247,4.24926 3.530627,10.27923 3.209827,11.98926 -0.44889,2.39278 -3.153047,3.67726 -5.365987,2.54886 z m 24.789723,-0.96304 c -1.898401,-0.67743 -2.335218,-1.39377 -3.083515,-5.05669 -4.378316,-21.43188 -19.906018,-39.59528 -40.489378,-47.36211 -2.96939,-1.12045 -5.87143,-1.9644 -9.76387,-2.83946 -3.29943,-0.74174 -3.98146,-1.07525 -4.73877,-2.31727 -1.29016,-2.11592 0.0562,-5.10919 2.50477,-5.56853 1.54951,-0.2907 9.20006,1.5749 14.52737,3.54251 19.04806,7.0353 35.11707,23.07703 42.270129,42.19838 2.115828,5.65596 3.9106,13.18769 3.537147,14.84354 -0.261843,1.16098 -1.407569,2.34481 -2.586205,2.67224 -1.119723,0.31106 -0.968455,0.31888 -2.177678,-0.11261 z"
       id="path314" /></g></svg>
