<?xml version="1.0" encoding="UTF-8" standalone="no"?>
<!-- Created with Inkscape (http://www.inkscape.org/) -->

<svg
   version="1.1"
   id="svg2"
   width="2526.4858"
   height="2088.8516"
   viewBox="0 0 2526.4859 2088.8515"
   xmlns="http://www.w3.org/2000/svg"
   xmlns:svg="http://www.w3.org/2000/svg">
  <defs
     id="defs6" />
  <g
     id="g10"
     transform="matrix(1.3333333,0,0,-1.3333333,-1171.6977,-865.90319)">
    <g
       id="g872">
      <path
         d="m 2575.0178,-1399.8774 v 277.46 c 0.04,0 0.07,0 0.11,0 14.91,0 31.5,4.94 46.48,9.27 2.19,0.64 4.05,0.94 5.61,0.94 19.34,0 -5.79,-45.64 20.65,-63.51 28.58,-19.31 67.98,-10.04 52.53,-30.89 -15.45,-20.86 -44.03,-62.57 -5.41,-78.02 4.36,-1.75 8.76,-2.58 13.15,-2.58 3.89,0 7.77,0.65 11.61,1.91 -35.22,-51.51 -85.61,-91.85 -144.73,-114.58 m 198.62,289.19 c 0,28.49 -3.85,56.09 -11.05,82.29 -2.53,1.17 -5.18,1.77 -7.89,1.77 -0.17,0 -0.33,0 -0.49,-0.01 0,0 1.33,6.82 -23.59,6.82 -4.15,0 -9.04,-0.19 -14.77,-0.64 -1.3,-0.1 -2.55,-0.14 -3.77,-0.14 -17.59,0 -26.77,10.11 -35.53,20.23 -8.76,10.10998 -17.1,20.22998 -33,20.22998 -1.1,0 -2.23,-0.05 -3.4,-0.15 -36.31,-3.09 -32.45,-23.93998 -61.8,-26.25998 -23.28,-1.84 -42.67,-10.97 -42.38,-26.61 h -269.22 c -1.42,2.68 -2.13,5.79 -1.75,9.61 1.08,10.84 7.87,14.83 19.46,14.83 10.44,0 24.77,-3.23 42.34,-7.63 4.3,-1.07 7.87,-1.57 10.84,-1.57 22.57,0 10.15,28.56998 21.07,45.86998 12.36,19.57 67.98,5.14 65.92,18.53 -1.6,10.49 -14.57,12.77 -28.53,12.77 -3.87,0 -7.83,-0.18 -11.63,-0.41 -1.49,-0.08 -2.92,-0.13 -4.27,-0.13 -14.54,0 -21.05,5.85 -16.33,34.12 5.15,30.9 -9.27,17.51 -30.89,44.29 -9.84,12.18 -21.39,15.84 -31.04,16.19 -6.72,-4.12 -13.29,-8.51 -19.65,-13.13 -13.37,-9.68 -25.91,-20.41 -37.53,-32.05 -38.42,-38.48 -66.77,-86.99 -80.76,-141.28998 v 0 c 13.99,54.29998 42.34,102.80998 80.76,141.28998 11.62,11.64 24.16,22.37 37.53,32.05 6.36,4.62 12.93,9.01 19.65,13.13 47.12,29 102.6,45.72 162,45.72 7.87,0 15.68,-0.3 23.4,-0.88 10.91,-0.81 21.65,-2.18 32.2,-4.1 44.43,-8.05 85.54,-25.58 121.19,-50.42 h 0.02 c 22.21,-15.47 42.3,-33.76 59.74,-54.38 9.16,-10.83 17.6,-22.3 25.21,-34.33 4.74,-7.49 9.18,-15.19 13.29,-23.1 9.87,-19 17.81,-39.15998 23.6,-60.21998 7.2,-26.2 11.05,-53.8 11.05,-82.29 v 0 m -99.27,159.69998 c 8.88,0 16.46,-5.2 24.28,-10.41 7.83,-5.21 15.9,-10.42 25.77,-10.42 4.44,0 9.25,1.06 14.57,3.64 -4.11,7.91 -8.55,15.61 -13.29,23.1 -7.61,12.03 -16.05,23.5 -25.21,34.33 -17.44,20.62 -37.53,38.91 -59.74,54.38 h -0.02 c -2.11,-0.19 -4.12,-0.65 -5.99,-1.36 0,0 -3.66,0.57 -8.8,0.57 -10.3,0 -26.56,-2.29 -31.37,-16.02 -7.21,-20.59 -41.2,-13.39 -43.26,-39.13 -0.68,-8.59 3.9,-10.99 11.15,-10.99 4.61,0 10.31,0.97 16.41,1.94 6.11,0.98 12.63,1.95 18.89,1.95 7.16,0 13.98,-1.27 19.47,-5.26 18.25,-13.28 18.53,-32.58 32.99,-32.57 3.49,0 7.81,1.12 13.41,3.72 3.82,1.78 7.38,2.53 10.74,2.53 m -279.89,104.56 c -18.7,0 -25.23,-15.79 -10.02,-32.93 12.98,-14.62 23.98,-39.99 35.37,-39.99 2.85,0 5.73,1.59 8.66,5.33 14.68,18.7 11.85,32.86 29.1,34.66 0,0 17.51,25.26 -10.3,32.72 -7.96,2.13 -13.6,2.85 -18.1,2.85 -4.75,0 -8.23,-0.8 -11.84,-1.61 -3.6,-0.8 -7.33,-1.6 -12.57,-1.61 -1.91,0 -4.03,0.11 -6.41,0.37 -1.35,0.14 -2.64,0.21 -3.89,0.21"
         style="fill:#e3edfc;fill-opacity:1;fill-rule:nonzero;stroke:none;stroke-width:0.1"
         id="path18" />
      <path
         d="m 2266.7478,-1033.1574 h -102.75 c 13.99,54.29998 42.34,102.80998 80.76,141.28998 11.62,11.64 24.16,22.37 37.53,32.05 6.36,4.62 12.93,9.01 19.65,13.13 9.65,-0.35 21.2,-4.01 31.04,-16.19 21.62,-26.78 36.04,-13.39 30.89,-44.29 -4.72,-28.27 1.79,-34.12 16.33,-34.12 1.35,0 2.78,0.05 4.27,0.13 3.8,0.23 7.76,0.41 11.63,0.41 13.96,0 26.93,-2.28 28.53,-12.77 2.06,-13.39 -53.56,1.04 -65.92,-18.53 -10.92,-17.3 1.5,-45.86998 -21.07,-45.86998 -2.97,0 -6.54,0.5 -10.84,1.57 -17.57,4.4 -31.9,7.63 -42.34,7.63 -11.59,0 -18.38,-3.99 -19.46,-14.83 -0.38,-3.82 0.33,-6.93 1.75,-9.61"
         style="fill:#d3e0fc;fill-opacity:1;fill-rule:nonzero;stroke:none;stroke-width:0.1"
         id="path20" />
      <path
         d="m 2708.1378,-1287.2074 c -4.39,0 -8.79,0.83 -13.15,2.58 -38.62,15.45 -10.04,57.16 5.41,78.02 15.45,20.85 -23.95,11.58 -52.53,30.89 -26.44,17.87 -1.31,63.51 -20.65,63.51 -1.56,0 -3.42,-0.3 -5.61,-0.94 -14.98,-4.33 -31.57,-9.27 -46.48,-9.27 -0.04,0 -0.07,0 -0.11,0 v 58.72 c 0,16.87 -12.17,30.54 -27.19,30.54 h -11.86 c -0.29,15.64 19.1,24.77 42.38,26.61 29.35,2.32 25.49,23.16998 61.8,26.25998 1.17,0.1 2.3,0.15 3.4,0.15 15.9,0 24.24,-10.12 33,-20.22998 8.76,-10.12 17.94,-20.23 35.53,-20.23 1.22,0 2.47,0.04 3.77,0.14 5.73,0.45 10.62,0.64 14.77,0.64 24.92,0 23.59,-6.82 23.59,-6.82 0.16,0.01 0.32,0.01 0.49,0.01 2.71,0 5.36,-0.6 7.89,-1.77 7.2,-26.2 11.05,-53.8 11.05,-82.29 v 0 c 0,-19.04 -1.72,-37.68 -5.01,-55.79 -7.91,-43.44 -24.87,-83.72 -48.88,-118.82 v 0 c -3.84,-1.26 -7.72,-1.91 -11.61,-1.91"
         style="fill:#d3e0fc;fill-opacity:1;fill-rule:nonzero;stroke:none;stroke-width:0.1"
         id="path22" />
      <path
         d="m 2724.4178,-971.81742 c -9.87,0 -17.94,5.21 -25.77,10.42 -7.82,5.21 -15.4,10.41 -24.28,10.41 -3.36,0 -6.92,-0.75 -10.74,-2.53 -5.6,-2.6 -9.92,-3.72 -13.41,-3.72 -14.46,-0.01 -14.74,19.29 -32.99,32.57 -5.49,3.99 -12.31,5.26 -19.47,5.26 -6.26,0 -12.78,-0.97 -18.89,-1.95 -6.1,-0.97 -11.8,-1.94 -16.41,-1.94 -7.25,0 -11.83,2.4 -11.15,10.99 2.06,25.74 36.05,18.54 43.26,39.13 4.81,13.73 21.07,16.02 31.37,16.02 5.14,0 8.8,-0.57 8.8,-0.57 1.87,0.71 3.88,1.17 5.99,1.36 h 0.02 c 22.21,-15.47 42.3,-33.76 59.74,-54.38 9.16,-10.83 17.6,-22.3 25.21,-34.33 4.74,-7.49 9.18,-15.19 13.29,-23.1 -5.32,-2.58 -10.13,-3.64 -14.57,-3.64"
         style="fill:#d3e0fc;fill-opacity:1;fill-rule:nonzero;stroke:none;stroke-width:0.1"
         id="path24" />
      <path
         d="m 2419.8278,-919.34742 c -11.39,0 -22.39,25.37 -35.37,39.99 -15.21,17.14 -8.68,32.93 10.02,32.93 1.25,0 2.54,-0.07 3.89,-0.21 2.38,-0.26 4.5,-0.37 6.41,-0.37 5.24,0.01 8.97,0.81 12.57,1.61 3.61,0.81 7.09,1.61 11.84,1.61 4.5,0 10.14,-0.72 18.1,-2.85 27.81,-7.46 10.3,-32.72 10.3,-32.72 -17.25,-1.8 -14.42,-15.96 -29.1,-34.66 -2.93,-3.74 -5.81,-5.33 -8.66,-5.33"
         style="fill:#d3e0fc;fill-opacity:1;fill-rule:nonzero;stroke:none;stroke-width:0.1"
         id="path26" />
      <path
         d="m 2575.0178,-1063.6974 v -964.05 c 0,-16.86 -12.17,-30.54 -27.19,-30.54 H 1156.9309 c -15.01,0 -27.187,13.68 -27.187,30.54 v 964.05 c 0,16.87 12.177,30.54 27.187,30.54 h 1390.8969 c 15.02,0 27.19,-13.67 27.19,-30.54"
         style="fill:#aec3ff;fill-opacity:1;fill-rule:nonzero;stroke:none;stroke-width:0.1"
         id="path28" />
      <path
         d="m 2575.0178,-1060.3474 v -72.79 H 1129.7439 v 72.79 c 0,15.03 12.176,27.19 27.187,27.19 h 1390.8969 c 15.02,0 27.19,-12.16 27.19,-27.19"
         style="fill:#739af0;fill-opacity:1;fill-rule:nonzero;stroke:none;stroke-width:0.1"
         id="path30" />
      <path
         d="m 1173.9549,-1083.1474 c 0,6.99 5.667,12.66 12.657,12.66 6.99,0 12.657,-5.67 12.657,-12.66 0,-6.99 -5.667,-12.65 -12.657,-12.65 -6.99,0 -12.657,5.66 -12.657,12.65"
         style="fill:#dfebfd;fill-opacity:1;fill-rule:nonzero;stroke:none;stroke-width:0.1"
         id="path32" />
      <path
         d="m 1223.8289,-1083.1474 c 0,6.99 5.666,12.66 12.657,12.66 6.99,0 12.657,-5.67 12.657,-12.66 0,-6.99 -5.667,-12.65 -12.657,-12.65 -6.991,0 -12.657,5.66 -12.657,12.65"
         style="fill:#dfebfd;fill-opacity:1;fill-rule:nonzero;stroke:none;stroke-width:0.1"
         id="path34" />
      <path
         d="m 1274.9619,-1083.1474 c 0,6.99 5.666,12.66 12.657,12.66 6.99,0 12.657,-5.67 12.657,-12.66 0,-6.99 -5.667,-12.65 -12.657,-12.65 -6.991,0 -12.657,5.66 -12.657,12.65"
         style="fill:#dfebfd;fill-opacity:1;fill-rule:nonzero;stroke:none;stroke-width:0.1"
         id="path36" />
      <path
         d="m 1907.4078,-1910.5974 h 152.43 v 152.43 h -152.43 z"
         style="fill:#cddbfc;fill-opacity:1;fill-rule:nonzero;stroke:none;stroke-width:0.1"
         id="path38" />
      <path
         d="m 1918.8578,-1893.1874 45.02,81.18 33.11,-45.16 16.53,18.07 35.03,-54.09 h -129.69"
         style="fill:#739af0;fill-opacity:1;fill-rule:nonzero;stroke:none;stroke-width:0.1"
         id="path40" />
      <path
         d="m 1985.3378,-1800.3574 c 0,6.43 5.22,11.65 11.65,11.65 6.44,0 11.65,-5.22 11.65,-11.65 0,-6.44 -5.21,-11.65 -11.65,-11.65 -6.43,0 -11.65,5.21 -11.65,11.65"
         style="fill:#739af0;fill-opacity:1;fill-rule:nonzero;stroke:none;stroke-width:0.1"
         id="path42" />
      <path
         d="m 1907.4078,-1699.4274 h 380.06 v 220.29 h -380.06 z"
         style="fill:#cddbfc;fill-opacity:1;fill-rule:nonzero;stroke:none;stroke-width:0.1"
         id="path44" />
      <path
         d="m 2054.5478,-1532.8474 v -112.86 l 85.77,56.43 z"
         style="fill:#739af0;fill-opacity:1;fill-rule:nonzero;stroke:none;stroke-width:0.1"
         id="path46" />
      <path
         d="m 2461.3478,-1315.1174 c 0,-24.86 -9.92,-47.46 -25.93,-63.85 -16,-16.39 -38.07,-26.54 -62.35,-26.54 H 1344.5849 c -52.494,0 -95.442,40.67 -95.442,90.39 0,24.85 10.726,47.45 28.038,63.83 17.291,16.39 41.157,26.55 67.404,26.55 h 1028.4829 c 48.56,0 88.28,-40.67 88.28,-90.38"
         style="fill:#ebf3fa;fill-opacity:1;fill-rule:nonzero;stroke:none;stroke-width:0.1"
         id="path48" />
      <path
         d="m 2461.3478,-1315.1174 c 0,-24.86 -9.92,-47.46 -25.93,-63.85 -16,-16.39 -38.07,-26.54 -62.35,-26.54 h -186.11 v 180.77 h 186.11 c 48.56,0 88.28,-40.67 88.28,-90.38"
         style="fill:#f99746;fill-opacity:1;fill-rule:nonzero;stroke:none;stroke-width:0.1"
         id="path50" />
      <path
         d="m 2320.5678,-1270.9774 c -17.05,-12.62 -20.66,-36.77 -8.03,-53.82 6.11,-8.26 15.08,-13.65 25.24,-15.16 10.16,-1.52 20.32,1.01 28.58,7.13 17.05,12.62 20.65,36.77 8.03,53.82 -12.62,17.05 -36.77,20.65 -53.82,8.03 z m 22.99,-77 c -2.29,0 -4.59,0.17 -6.9,0.51 -12.17,1.82 -22.9,8.27 -30.22,18.16 -15.11,20.41 -10.8,49.32 9.61,64.43 v 0 c 20.42,15.11 49.32,10.8 64.44,-9.62 15.11,-20.41 10.8,-49.32 -9.62,-64.43 -8.01,-5.93 -17.52,-9.05 -27.31,-9.05"
         style="fill:#ffffff;fill-opacity:1;fill-rule:nonzero;stroke:none;stroke-width:0.1"
         id="path52" />
      <path
         d="m 2261.2178,-1367.5074 -4.52,6.1 50.53,37.4 4.52,-6.1 -50.53,-37.4"
         style="fill:#ffffff;fill-opacity:1;fill-rule:nonzero;stroke:none;stroke-width:0.1"
         id="path54" />
      <path
         d="m 2241.3978,-1377.4574 v 0 c -2.23,3.01 -1.59,7.25 1.41,9.47 l 29.76,22.03 c 3.01,2.23 7.25,1.6 9.48,-1.41 2.22,-3.01 1.59,-7.25 -1.42,-9.48 l -29.75,-22.03 c -3.01,-2.22 -7.25,-1.59 -9.48,1.42"
         style="fill:#ffffff;fill-opacity:1;fill-rule:nonzero;stroke:none;stroke-width:0.1"
         id="path56" />
      <path
         d="m 1553.3479,-1190.5574 c -1.95,-2.22 -2.19,-4.71 -1.23,-7.36 l 0.01,-0.04 c 1.78,-4.91 7.65,-10.39 14.46,-15.87 0.87,-0.7 1.65,-1.34 2.32,-1.93 0.18,-0.16 0.36,-0.31 0.52,-0.47 0.14,-0.12 0.27,-0.25 0.4,-0.36 6.36,-5.86 3.96,-7.21 15.38,-19.1 13.02,-13.55 21.98,-13.8 24.53,-12.57 2.16,1.05 -2.22,8.24 -7.08,16.32 -0.23,0.39 -0.46,0.78 -0.7,1.18 -0.65,1.07 -1.29,2.16 -1.93,3.24 -5.69,9.72 -4.23,14.28 -2.87,28.75 1.1,11.75 18.31,65.66 18.31,65.66 l -24.96,4.31 c 0,0 -7.53,-42.93 -15.81,-49.54 -4.43,-3.52 -9.38,-3.56 -13.64,-6.18 -0.3,-0.18 -0.59,-0.36 -0.88,-0.55 -2.42,-1.61 -4.89,-3.26 -6.83,-5.49"
         style="fill:#ffb27d;fill-opacity:1;fill-rule:nonzero;stroke:none;stroke-width:0.1"
         id="path58" />
      <path
         d="m 1553.3479,-1190.5574 c -1.95,-2.22 -2.19,-4.71 -1.23,-7.36 l 0.01,-0.04 c 2.18,-4.9 7.9,-10.36 14.48,-15.82 0.87,-0.71 1.62,-1.37 2.3,-1.98 0.18,-0.16 0.36,-0.31 0.52,-0.47 0.14,-0.12 0.27,-0.25 0.4,-0.36 6.36,-5.86 3.96,-7.21 15.38,-19.1 13.02,-13.55 21.98,-13.8 24.53,-12.57 2.16,1.05 -2.22,8.24 -7.08,16.32 -2.53,0.93 -14.3,5.72 -23.2,17.11 -7.55,9.64 -12.68,21.94 -17.82,29.48 -0.56,0.11 -0.9,0.17 -1.46,0.28 -2.42,-1.61 -4.89,-3.26 -6.83,-5.49"
         style="fill:#233862;fill-opacity:1;fill-rule:nonzero;stroke:none;stroke-width:0.1"
         id="path60" />
      <path
         d="m 1754.5579,-1175.0374 c 1.54,-7.71 12.52,-6.42 24.7899,-3.43 12.27,2.99 9.35,-0.57 26.81,1.36 17.46,1.92 22.75,8.43 23.28,11.02 0.48,2.31 -8.15,3.12 -17.4,4.19 -1.16,0.13 -2.33,0.28 -3.5,0.42 -10.45,1.32 -18.09,8.06 -27.58,13.6 -8.9899,5.25 -22.3899,26.62 -22.3899,26.62 l -23.95,-1.89 c 0,0 12.56,-19.09 17.42,-27.39 2.85,-4.88 2.7,-11.33 2.34,-16.31 -0.18,-2.71 -0.36,-5.48 0.18,-8.19"
         style="fill:#ffb27d;fill-opacity:1;fill-rule:nonzero;stroke:none;stroke-width:0.1"
         id="path62" />
      <path
         d="m 1779.3478,-1178.4674 c 12.27,2.99 9.35,-0.57 26.81,1.36 17.46,1.92 22.75,8.43 23.28,11.02 0.48,2.31 -8.15,3.12 -17.4,4.19 l -0.08,-0.17 c 0,0 -10.48,-7.42 -25.01,-7.77 -11.84,-0.28 -24.3899,3.12 -32.5699,2.99 -0.18,-2.71 -0.36,-5.48 0.18,-8.19 1.54,-7.71 12.52,-6.42 24.7899,-3.43"
         style="fill:#233862;fill-opacity:1;fill-rule:nonzero;stroke:none;stroke-width:0.1"
         id="path64" />
      <path
         d="m 1662.8579,-1021.9174 -22.4,-60.22 -29.25,-78.63 c 0,0 -7.93,-0.76 -15.52,1.43 -6.99,2.02 -15.01,7.31 -15.01,7.31 0,0 8.14,84.43 23.3,132.9 3.88,12.44 8.23,22.49998 13.03,28.15998 23.47,27.72 45.85,-30.94998 45.85,-30.94998"
         style="fill:#f4904d;fill-opacity:1;fill-rule:nonzero;stroke:none;stroke-width:0.1"
         id="path66" />
      <path
         d="m 1640.1379,-926.25742 c -12.74,4.11 -45.98,0.08 -82.04,-6.44 -9.96,-1.8 -20,2.76 -25.25,11.41 v 0 l -90.74,7.12 c 0,0 -29.96,-66.39 -13.59,-108.70998 2.41,-6.21 7.7,-10.1 15.86,-10.23 0,0 54.83,-0.1 72.37,-0.1 45.12,-0.02 95.51,30.98 102.03,32.29 10.67,2.12998 14.93,-19.21 25.59,-41.61 10.66,-22.41 100.23,-99.24 100.23,-99.24 0,0 13.77,-0.14 19.46,1.99 6.12,2.29 8.36,5.27 8.36,5.27 0,0 -99.22,197.56998 -132.28,208.24998"
         style="fill:#ffa561;fill-opacity:1;fill-rule:nonzero;stroke:none;stroke-width:0.1"
         id="path68" />
      <path
         d="m 1523.2979,-654.81742 c -6.73,4.02 -13.3,4.63 -17.33,4.52 -2.8,-0.08 -5.6,0.1 -8.37,0.51 -34.63,5.09 -55.5,-45.21 -56.73,-60.41 -2.25,-27.9 -17.02,-32.15 -37.8,-49.62 -41.68,-35.03 -29.47,-75.75 -6.7,-90.89 13.67,-9.08 37.77,-0.01 37.77,-0.01 0.34,-0.24 65.9,36.62 98.22,54.4 48.44,6.87 10.4,129.91 -9.06,141.5"
         style="fill:#233862;fill-opacity:1;fill-rule:nonzero;stroke:none;stroke-width:0.1"
         id="path70" />
      <path
         d="m 1505.2779,-781.16742 c 0.15,-0.09 -15.9,-5.56 -26.62,-0.81 -10.09,4.47 -17.73,21.07 -17.58,21.08 4.59,0.21 9.63,4.22 13.52,30.55 l 1.96,-0.7 32.86,-11.84 c 0,0 -2.39,-10.54 -3.93,-20.58 -1.3,-8.43 -2,-16.5 -0.21,-17.7"
         style="fill:#ffb27d;fill-opacity:1;fill-rule:nonzero;stroke:none;stroke-width:0.1"
         id="path72" />
      <path
         d="m 1509.4179,-742.88742 c 0,0 -1.32,-5.69 -3.24,-16.31 -18.87,3.4 -26.97,17.94 -29.62,28.15 l 32.86,-11.84"
         style="fill:#ed975d;fill-opacity:1;fill-rule:nonzero;stroke:none;stroke-width:0.1"
         id="path74" />
      <path
         d="m 1514.3079,-753.35742 c 0,0 -44.97,6.06 -40.77,34 4.2,27.94 1.23,47.54 30.11,44.86 28.89,-2.69 32.85,-14.18 33.72,-23.85 0.86,-9.67 -11.26,-55.86 -23.06,-55.01"
         style="fill:#ffb27d;fill-opacity:1;fill-rule:nonzero;stroke:none;stroke-width:0.1"
         id="path76" />
      <path
         d="m 1535.7279,-683.02742 c 0,0 -28.79,-24.8 -48.37,-26.79 -19.58,-1.99 -26.99,4.29 -26.99,4.29 0,0 11.54,9.58 18.49,25.04 2.05,4.55 6.38,7.68 11.36,8.11 13.98,1.2 40.48,1.75 45.51,-10.65"
         style="fill:#233862;fill-opacity:1;fill-rule:nonzero;stroke:none;stroke-width:0.1"
         id="path78" />
      <path
         d="m 1517.7379,-680.80742 c 0,0 9.63,-9.31 12.66,-16.22 2.92,-6.66 3.79,-22.6 1.46,-28.93 0,0 15.01,29.17 6.52,43.34 -9,15.04 -20.64,1.81 -20.64,1.81"
         style="fill:#233862;fill-opacity:1;fill-rule:nonzero;stroke:none;stroke-width:0.1"
         id="path80" />
      <path
         d="m 1543.1179,-847.41742 c -1.39,-91.01 -0.4,-71.99 -10.36,-80.63 -2.4,-2.08 -9.14,-3.31 -18.02,-3.9 -27.91,-1.84 -76.96,2.78 -78.83,7.94 -6.43,17.84 -1.88,23.39 -7.25,50.71 -0.55,2.91 -1.25,6.05 -2.06,9.48 -4.47,18.77 -8.83,25.15 7.07,55.29 14.42,27.31 29.39,49.47 30.74,48.67 38,-22.58 41.08,-3.62 41.08,-3.62 0,0 38.31,-39.54 37.63,-83.94"
         style="fill:#afcdfb;fill-opacity:1;fill-rule:nonzero;stroke:none;stroke-width:0.1"
         id="path82" />
      <path
         d="m 1640.4579,-1082.1374 -29.25,-78.63 c 0,0 -7.93,-0.76 -15.52,1.43 -6.99,2.02 -15.01,7.31 -15.01,7.31 0,0 8.14,84.43 23.3,132.9 l 36.48,-63.01"
         style="fill:#ffa561;fill-opacity:1;fill-rule:nonzero;stroke:none;stroke-width:0.1"
         id="path84" />
      <path
         d="m 1505.4879,-763.46742 c 0,0 39.11,-6.64 43.69,-23.49 4.59,-16.84 19.68,-119.06 19.68,-119.06 0,0 -11.04,-10.77 -20.22,-1.58 -9.18,9.19 -28.87,95.65 -28.87,95.65 l -14.28,48.48"
         style="fill:#afcdfb;fill-opacity:1;fill-rule:nonzero;stroke:none;stroke-width:0.1"
         id="path86" />
      <path
         d="m 1514.7379,-931.94742 c -27.91,-1.84 -76.96,2.78 -78.83,7.94 -6.43,17.84 -1.88,23.39 -7.25,50.71 l 13.48,37.9 c 0,0 -2.24,-42.21 10.2,-53.31 12.43,-11.11 50.96,-21.45 57.01,-30.73 2.92,-4.45 4.84,-8.92 5.39,-12.51"
         style="fill:#95b3ef;fill-opacity:1;fill-rule:nonzero;stroke:none;stroke-width:0.1"
         id="path88" />
      <path
         d="m 1482.7679,-914.17742 c 0,0 27.54,6.12 31.98,3.68 4.44,-2.45 15.3,-11.35 16.66,-14.45 1.35,-3.1 -9.89,2.35 -13.55,3.34 -2.37,0.63 -8.61,-1.53 -11.7,-2.56 -13,-4.33 -20.96,-2.1 -20.96,-2.1 l -2.43,12.09"
         style="fill:#ffb27d;fill-opacity:1;fill-rule:nonzero;stroke:none;stroke-width:0.1"
         id="path90" />
      <path
         d="m 1464.3879,-759.83742 c 0,0 -36.98,-2.27 -49.78,-20.11 -18.02,-25.13 -53.801,-132.2 -33.32,-146.49 23.06,-16.09 104.98,-4.25 104.98,-4.25 0,0 2.73,12.75 -1.06,18.91 -3.79,6.17 -65.42,16.14 -68.27,18.99 -2.84,2.84 35.58,55.46 35.58,63.99 0.01,8.53 11.87,68.96 11.87,68.96"
         style="fill:#afcdfb;fill-opacity:1;fill-rule:nonzero;stroke:none;stroke-width:0.1"
         id="path92" />
      <path
         d="m 1516.0779,-918.16742 c 0,0 5.77,-7.44 7.66,-8.33 1.89,-0.89 3.11,-0.67 3.11,-0.67 l -3.88,7 -6.89,2"
         style="fill:#ffb27d;fill-opacity:1;fill-rule:nonzero;stroke:none;stroke-width:0.1"
         id="path94" />
      <path
         d="m 1514.7479,-910.49742 16.77,-8.16 c 0,0 -0.71,-1.16 -2.78,-1.07 -2.06,0.1 -7.27,2 -7.27,2 l -6.72,7.23"
         style="fill:#ffb27d;fill-opacity:1;fill-rule:nonzero;stroke:none;stroke-width:0.1"
         id="path96" />
      <path
         d="m 1657.9779,-929.69742 -175.21,0.06 v -3.87 l 173.65,-0.06 1.56,3.87"
         style="fill:#233862;fill-opacity:1;fill-rule:nonzero;stroke:none;stroke-width:0.1"
         id="path98" />
      <path
         d="m 1523.7379,-933.51742 132.68,-0.05 39.95,99.24 -132.48,0.04 -40.15,-99.23"
         style="fill:#233862;fill-opacity:1;fill-rule:nonzero;stroke:none;stroke-width:0.1"
         id="path100" />
      <path
         d="m 1622.9379,-883.92742 c 1,3.49 -1.01,6.32 -4.5,6.32 -3.49,0 -7.13,-2.83 -8.13,-6.32 -1,-3.49 1.01,-6.31 4.5,-6.32 3.49,0 7.13,2.83 8.13,6.32"
         style="fill:#ffffff;fill-opacity:1;fill-rule:nonzero;stroke:none;stroke-width:0.1"
         id="path102" />
      <path
         d="m 1532.2879,-1521.5774 h -239.567 c -4.986,0 -9.028,4.04 -9.028,9.02 v 3.81 c 0,4.98 4.042,9.02 9.028,9.02 h 239.567 c 4.98,0 9.03,-4.04 9.03,-9.02 v -3.81 c 0,-4.98 -4.05,-9.02 -9.03,-9.02"
         style="fill:#f99746;fill-opacity:1;fill-rule:nonzero;stroke:none;stroke-width:0.1"
         id="path104" />
      <path
         d="m 1409.3579,-1596.7374 h -118.208 c -4.118,0 -7.457,3.34 -7.457,7.46 0,4.12 3.339,7.46 7.457,7.46 h 118.208 c 4.11,0 7.45,-3.34 7.45,-7.46 0,-4.12 -3.34,-7.46 -7.45,-7.46"
         style="fill:#739af0;fill-opacity:1;fill-rule:nonzero;stroke:none;stroke-width:0.1"
         id="path106" />
      <path
         d="m 1499.8679,-1565.4574 h -209.235 c -3.833,0 -6.94,3.11 -6.94,6.94 v 1.04 c 0,3.83 3.107,6.94 6.94,6.94 h 209.235 c 3.83,0 6.94,-3.11 6.94,-6.94 v -1.04 c 0,-3.83 -3.11,-6.94 -6.94,-6.94"
         style="fill:#739af0;fill-opacity:1;fill-rule:nonzero;stroke:none;stroke-width:0.1"
         id="path108" />
      <path
         d="m 1728.7779,-1565.4574 h -194.93 c -3.71,0 -6.71,3 -6.71,6.71 v 1.5 c 0,3.7 3,6.71 6.71,6.71 h 194.93 c 3.7,0 6.7,-3.01 6.7,-6.71 v -1.5 c 0,-3.71 -3,-6.71 -6.7,-6.71"
         style="fill:#739af0;fill-opacity:1;fill-rule:nonzero;stroke:none;stroke-width:0.1"
         id="path110" />
      <path
         d="m 1556.7879,-1596.7374 h -118.2 c -4.12,0 -7.46,3.34 -7.46,7.46 0,4.12 3.34,7.46 7.46,7.46 h 118.2 c 4.12,0 7.46,-3.34 7.46,-7.46 0,-4.12 -3.34,-7.46 -7.46,-7.46"
         style="fill:#739af0;fill-opacity:1;fill-rule:nonzero;stroke:none;stroke-width:0.1"
         id="path112" />
      <path
         d="m 1824.0078,-1521.5774 h -239.5699 c -4.99,0 -9.03,4.04 -9.03,9.02 v 3.81 c 0,4.98 4.04,9.02 9.03,9.02 h 239.5699 c 4.98,0 9.02,-4.04 9.02,-9.02 v -3.81 c 0,-4.98 -4.04,-9.02 -9.02,-9.02"
         style="fill:#f99746;fill-opacity:1;fill-rule:nonzero;stroke:none;stroke-width:0.1"
         id="path114" />
      <path
         d="m 1532.2879,-1912.9274 h -239.567 c -4.986,0 -9.028,4.05 -9.028,9.03 v 3.8 c 0,4.99 4.042,9.03 9.028,9.03 h 239.567 c 4.98,0 9.03,-4.04 9.03,-9.03 v -3.8 c 0,-4.98 -4.05,-9.03 -9.03,-9.03"
         style="fill:#f99746;fill-opacity:1;fill-rule:nonzero;stroke:none;stroke-width:0.1"
         id="path116" />
      <path
         d="m 1409.3579,-1988.0774 h -118.207 c -4.119,0 -7.458,3.34 -7.458,7.45 0,4.12 3.339,7.46 7.458,7.46 h 118.207 c 4.11,0 7.45,-3.34 7.45,-7.46 0,-4.11 -3.34,-7.45 -7.45,-7.45"
         style="fill:#739af0;fill-opacity:1;fill-rule:nonzero;stroke:none;stroke-width:0.1"
         id="path118" />
      <path
         d="m 1499.8679,-1956.7974 h -209.235 c -3.833,0 -6.94,3.11 -6.94,6.94 v 1.03 c 0,3.84 3.107,6.94 6.94,6.94 h 209.235 c 3.83,0 6.94,-3.1 6.94,-6.94 v -1.03 c 0,-3.83 -3.11,-6.94 -6.94,-6.94"
         style="fill:#739af0;fill-opacity:1;fill-rule:nonzero;stroke:none;stroke-width:0.1"
         id="path120" />
      <path
         d="m 1728.7779,-1956.7974 h -194.93 c -3.71,0 -6.71,3 -6.71,6.71 v 1.5 c 0,3.7 3,6.7 6.71,6.7 h 194.93 c 3.7,0 6.7,-3 6.7,-6.7 v -1.5 c 0,-3.71 -3,-6.71 -6.7,-6.71"
         style="fill:#739af0;fill-opacity:1;fill-rule:nonzero;stroke:none;stroke-width:0.1"
         id="path122" />
      <path
         d="m 1556.7879,-1988.0774 h -118.2 c -4.12,0 -7.46,3.34 -7.46,7.45 0,4.12 3.34,7.46 7.46,7.46 h 118.2 c 4.12,0 7.46,-3.34 7.46,-7.46 0,-4.11 -3.34,-7.45 -7.46,-7.45"
         style="fill:#739af0;fill-opacity:1;fill-rule:nonzero;stroke:none;stroke-width:0.1"
         id="path124" />
      <path
         d="m 1824.0078,-1912.9274 h -239.5699 c -4.99,0 -9.03,4.05 -9.03,9.03 v 3.8 c 0,4.99 4.04,9.03 9.03,9.03 h 239.5699 c 4.98,0 9.02,-4.04 9.02,-9.03 v -3.8 c 0,-4.98 -4.04,-9.03 -9.02,-9.03"
         style="fill:#f99746;fill-opacity:1;fill-rule:nonzero;stroke:none;stroke-width:0.1"
         id="path126" />
      <path
         d="m 1532.2879,-1717.2474 h -239.567 c -4.986,0 -9.028,4.04 -9.028,9.02 v 3.8 c 0,4.99 4.042,9.03 9.028,9.03 h 239.567 c 4.98,0 9.03,-4.04 9.03,-9.03 v -3.8 c 0,-4.98 -4.05,-9.02 -9.03,-9.02"
         style="fill:#f99746;fill-opacity:1;fill-rule:nonzero;stroke:none;stroke-width:0.1"
         id="path128" />
      <path
         d="m 1409.3579,-1792.4074 h -118.207 c -4.119,0 -7.458,3.34 -7.458,7.46 0,4.11 3.339,7.45 7.458,7.45 h 118.207 c 4.11,0 7.45,-3.34 7.45,-7.45 0,-4.12 -3.34,-7.46 -7.45,-7.46"
         style="fill:#739af0;fill-opacity:1;fill-rule:nonzero;stroke:none;stroke-width:0.1"
         id="path130" />
      <path
         d="m 1499.8679,-1761.1274 h -209.235 c -3.833,0 -6.94,3.11 -6.94,6.94 v 1.04 c 0,3.83 3.107,6.94 6.94,6.94 h 209.235 c 3.83,0 6.94,-3.11 6.94,-6.94 v -1.04 c 0,-3.83 -3.11,-6.94 -6.94,-6.94"
         style="fill:#739af0;fill-opacity:1;fill-rule:nonzero;stroke:none;stroke-width:0.1"
         id="path132" />
      <path
         d="m 1728.7779,-1761.1274 h -194.93 c -3.71,0 -6.71,3 -6.71,6.71 v 1.5 c 0,3.7 3,6.71 6.71,6.71 h 194.93 c 3.7,0 6.7,-3.01 6.7,-6.71 v -1.5 c 0,-3.71 -3,-6.71 -6.7,-6.71"
         style="fill:#739af0;fill-opacity:1;fill-rule:nonzero;stroke:none;stroke-width:0.1"
         id="path134" />
      <path
         d="m 1556.7879,-1792.4074 h -118.2 c -4.12,0 -7.46,3.34 -7.46,7.46 0,4.11 3.34,7.45 7.46,7.45 h 118.2 c 4.12,0 7.46,-3.34 7.46,-7.45 0,-4.12 -3.34,-7.46 -7.46,-7.46"
         style="fill:#739af0;fill-opacity:1;fill-rule:nonzero;stroke:none;stroke-width:0.1"
         id="path136" />
      <path
         d="m 1824.0078,-1717.2574 h -239.5699 c -4.99,0 -9.03,4.05 -9.03,9.03 v 3.8 c 0,4.99 4.04,9.03 9.03,9.03 h 239.5699 c 4.98,0 9.02,-4.04 9.02,-9.03 v -3.8 c 0,-4.98 -4.04,-9.03 -9.02,-9.03"
         style="fill:#f99746;fill-opacity:1;fill-rule:nonzero;stroke:none;stroke-width:0.1"
         id="path138" />
      <path
         d="m 1151.1909,-1612.0074 c 0,0 2.701,6.08 4.451,8.96 1.749,2.87 9.224,11.3 10.496,9.39 1.273,-1.9 6.362,-14.75 3.658,-18.35 -2.703,-3.59 0.175,-9.85 -13.272,-13.64 l -5.333,13.64"
         style="fill:#ffb27d;fill-opacity:1;fill-rule:nonzero;stroke:none;stroke-width:0.1"
         id="path140" />
      <path
         d="m 1001.7599,-1573.6374 c 0,0 68.834,-57.46 95.674,-52.14 20.987,4.16 53.198,15.2 53.198,15.2 l 6.441,-16.47 c 0,0 -28.886,-39.19 -59.003,-39.44 -47.076,-0.41 -81.856,20.38 -81.856,20.38 l -14.454,72.47"
         style="fill:#95b3ef;fill-opacity:1;fill-rule:nonzero;stroke:none;stroke-width:0.1"
         id="path142" />
      <path
         d="m 881.03988,-2179.6974 c 0,0 1.998,-32.24 8.235,-32.7 0.829,-0.06 31.63,-0.06 31.63,-0.06 l 39.318,0.23 c 0,0 -0.258,9.47 -11.75,11.47 -11.494,2.01 -30.73,10.08 -37.692,25.27 -7.325,15.98 -29.741,-4.21 -29.741,-4.21"
         style="fill:#1c4b8e;fill-opacity:1;fill-rule:nonzero;stroke:none;stroke-width:0.1"
         id="path144" />
      <path
         d="m 878.77388,-2181.9374 c 0,0 11.952,-4 21.284,-4 10.409,0 19.87,2.84 19.87,2.84 0,0 2.25,21.76 14.633,69.71 6.493,25.13 15.764,57.44 28.954,97.59 36.471,110.98 47.56202,175.9 48.57402,182.04 0.054,0.33 0.075,0.49 0.075,0.49 l -0.118,0.05 -112.12502,49.23 c 0,0 13.859,-152.94 -3.822,-211.65 -2.477,-8.2 -4.598,-17.76 -6.418,-28.12 -11.166,-63.77 -10.907,-158.18 -10.907,-158.18"
         style="fill:#ffa561;fill-opacity:1;fill-rule:nonzero;stroke:none;stroke-width:0.1"
         id="path146" />
      <path
         d="m 934.56088,-2113.3874 c 6.493,25.13 15.764,57.44 28.954,97.59 36.471,110.98 47.56202,175.9 48.57402,182.04 -0.011,0.19 -0.022,0.36 -0.043,0.54 l -112.12502,49.23 c 0,0 13.859,-152.94 -3.822,-211.65 -2.477,-8.2 38.462,-117.75 38.462,-117.75"
         style="fill:#f4904d;fill-opacity:1;fill-rule:nonzero;stroke:none;stroke-width:0.1"
         id="path148" />
      <path
         d="m 968.61488,-2179.6974 c 0,0 1.998,-32.24 8.234,-32.7 0.83,-0.06 31.63002,-0.06 31.63002,-0.06 l 39.319,0.23 c 0,0 -0.258,9.47 -11.751,11.47 -11.492,2.01 -30.729,10.08 -37.69102,25.27 -7.324,15.98 -29.741,-4.21 -29.741,-4.21"
         style="fill:#1c4b8e;fill-opacity:1;fill-rule:nonzero;stroke:none;stroke-width:0.1"
         id="path150" />
      <path
         d="m 1032.1849,-1787.5874 c 0,0 1.456,-99.11 -15.691,-220.8 -17.14802,-121.69 -11.335,-173.34 -11.335,-173.34 0,0 -11.78202,-3.82 -16.53702,-4.21 -12.113,-0.99 -24.534,2.84 -24.534,2.84 0,0 -24.544,121.73 -17.507,182.64 7.038,60.91 -33.609,209.01 -33.609,209.01 l 119.21302,3.86"
         style="fill:#ffa561;fill-opacity:1;fill-rule:nonzero;stroke:none;stroke-width:0.1"
         id="path152" />
      <path
         d="m 952.67988,-1555.6574 21.887,-14.35 19.936,5.63 c 3.644,5.2 4.609,15.23 4.662,23.91 0.054,8.61 -0.782,15.91 -0.782,15.91 l -29.529,13.04 -11.018,4.85 c 0.032,-0.17 0.857,-9.04 0.975,-10.34 2.058,-23.01 -6.131,-38.65 -6.131,-38.65"
         style="fill:#ffb27d;fill-opacity:1;fill-rule:nonzero;stroke:none;stroke-width:0.1"
         id="path154" />
      <path
         d="m 1032.6879,-1815.1374 c -27.243,-26.31 -130.34302,-21.88 -136.69702,7.1 -6.343,28.98 6.929,246.69 53.464,260.37 9.657,2.84 61.28302,-13.85 61.28302,-13.85 0,0 8.101,-21.19 13.414,-48.17 1.03,-5.25 4.041,-60.89 6.293,-112.94 1.05,-24.34 1.94,-47.91 2.394,-65.16 0.414,-16.16 0.434,-26.78 -0.151,-27.35"
         style="fill:#afcdfb;fill-opacity:1;fill-rule:nonzero;stroke:none;stroke-width:0.1"
         id="path156" />
      <path
         d="m 961.01888,-1517.4174 c 5.991,-10.13 27.01,-18.99 38.146,-23.05 0.054,8.61 -0.782,15.91 -0.782,15.91 l -29.529,13.04 c -6.527,0.08 -10.504,-1.37 -7.835,-5.9"
         style="fill:#fca56b;fill-opacity:1;fill-rule:nonzero;stroke:none;stroke-width:0.1"
         id="path158" />
      <path
         d="m 1009.5209,-1522.7574 c 0,0 -47.57802,-14.84 -56.36502,14.93 -8.787,29.77 -20.845,47.91 9.161,58.64 30.006,10.74 39.28802,1.13 44.63802,-8.1 5.35,-9.22 14.716,-60.84 2.566,-65.47"
         style="fill:#ffb27d;fill-opacity:1;fill-rule:nonzero;stroke:none;stroke-width:0.1"
         id="path160" />
      <path
         d="m 1005.0859,-1454.4174 c 0,0 -3.034,-34.64 -10.19802,-33.14 -7.165,1.51 -15.052,4.72 -14.003,-5.72 1.049,-10.44 -6.967,-28.35 -17.298,-28.3 -22.157,0.09 -46.232,56.94 -40.166,67.73 17.502,31.1 106.96202,37.38 81.66502,-0.57"
         style="fill:#163560;fill-opacity:1;fill-rule:nonzero;stroke:none;stroke-width:0.1"
         id="path162" />
      <path
         d="m 998.08688,-1548.4174 c -0.614,0.26 -35.419,15.87 -39.489,14.53 -4.071,-1.35 -9.145,-13.78 -9.145,-13.78 l 61.28702,-13.86 c 0,0 -4.824,9.81 -12.65302,13.11"
         style="fill:#95b3ef;fill-opacity:1;fill-rule:nonzero;stroke:none;stroke-width:0.1"
         id="path164" />
      <path
         d="m 1214.7729,-1717.0274 -195.106,-183.7 c -3.824,-3.6 -8.646,-4.74 -10.716,-2.55 l -6.586,7 c -2.07,2.2 -0.634,6.94 3.19,10.54 l 195.106,183.7 c 3.824,3.6 8.646,4.74 10.716,2.55 l 6.586,-7 c 2.07,-2.2 0.634,-6.94 -3.19,-10.54"
         style="fill:#1f4d84;fill-opacity:1;fill-rule:nonzero;stroke:none;stroke-width:0.1"
         id="path166" />
      <path
         d="m 1105.2839,-1820.1174 -85.617,-80.61 c -3.824,-3.6 -8.646,-4.74 -10.716,-2.55 l -6.586,7 c -2.07,2.2 -0.634,6.94 3.19,10.54 l 85.616,80.61 14.113,-14.99"
         style="fill:#739af0;fill-opacity:1;fill-rule:nonzero;stroke:none;stroke-width:0.1"
         id="path168" />
      <path
         d="m 1213.6379,-1506.5374 c 33.676,35.8 81.662,50.07 126.722,42.26 26.258,-4.54 51.508,-16.57 72.368,-36.19 56.66,-53.3 59.37,-142.44 6.07,-199.09 -19.63,-20.86 -44.1,-34.4 -70.013,-40.54 -44.513,-10.54 -93.282,0.77 -129.081,34.46 -56.656,53.3 -59.379,142.43 -6.066,199.1 m -43.709,-141.14 c 7.492,-24.68 21.361,-47.8 41.501,-66.75 61.512,-57.87 158.298,-54.91 216.168,6.59 57.1,60.71 54.98,155.74 -4.2,213.84 -0.79,0.78 -1.59,1.56 -2.4,2.32 -61.506,57.86 -158.281,54.93 -216.149,-6.58 -38.929,-41.38 -50.344,-98.71 -34.92,-149.42"
         style="fill:#1f4d84;fill-opacity:1;fill-rule:nonzero;stroke:none;stroke-width:0.1"
         id="path170" />
      <path
         d="m 1316.1749,-1743.8974 c -2.025,0 -4.049,0.04 -6.073,0.13 -26.36,1.13 -52.496,9.63 -75.082,25.6 -5.318,3.76 -10.437,7.94 -15.316,12.53 -56.656,53.3 -59.379,142.43 -6.066,199.1 1.917,2.04 3.881,4.01 5.889,5.91 26.997,25.53 61.811,38.42 96.7,38.42 8.072,0 16.147,-0.69 24.131,-2.07 24.78,-4.29 48.67,-15.24 68.8,-32.94 0.93,-0.82 1.86,-1.66 2.77,-2.51 h -119.207 c -4.986,0 -9.028,-4.04 -9.028,-9.02 v -3.81 c 0,-4.98 4.042,-9.02 9.028,-9.02 h 138.427 c 6.47,-9.12 11.74,-18.85 15.8,-28.96 h -156.315 c -3.833,0 -6.94,-3.11 -6.94,-6.94 v -1.04 c 0,-3.83 3.107,-6.94 6.94,-6.94 h 161.345 c 1.48,-5.39 2.65,-10.85 3.48,-16.36 h -16.87 c -4.12,0 -7.46,-3.34 -7.46,-7.46 0,-4.12 3.34,-7.46 7.46,-7.46 h 18.33 c 1.57,-34.94 -9.81,-70.43 -34.35,-98.66 h -129.847 c -4.986,0 -9.028,-4.04 -9.028,-9.03 v -3.8 c 0,-4.98 4.042,-9.02 9.028,-9.02 h 105.967 c -15.24,-11.04 -32.24,-18.66 -49.903,-22.85 -10.702,-2.53 -21.656,-3.8 -32.61,-3.8 m -25.025,162.08 c -4.118,0 -7.457,-3.34 -7.457,-7.46 0,-4.12 3.339,-7.46 7.457,-7.46 h 118.208 c 4.11,0 7.45,3.34 7.45,7.46 0,4.12 -3.34,7.46 -7.45,7.46 h -118.208"
         style="fill:#b1c9fc;fill-opacity:1;fill-rule:nonzero;stroke:none;stroke-width:0.1"
         id="path172" />
      <path
         d="m 1431.1479,-1521.5774 h -138.427 c -4.986,0 -9.028,4.04 -9.028,9.02 v 3.81 c 0,4.98 4.042,9.02 9.028,9.02 h 119.207 c 0.27,-0.24 0.54,-0.49 0.8,-0.74 1.05,-0.99 2.09,-1.99 3.1,-3 0.03,-0.04 0.06,-0.07 0.09,-0.1 0.03,-0.02 0.04,-0.04 0.07,-0.06 5.62,-5.64 10.68,-11.65 15.16,-17.95"
         style="fill:#d6b3a0;fill-opacity:1;fill-rule:nonzero;stroke:none;stroke-width:0.1"
         id="path174" />
      <path
         d="m 1409.3579,-1596.7374 h -118.208 c -4.118,0 -7.457,3.34 -7.457,7.46 0,4.12 3.339,7.46 7.457,7.46 h 118.208 c 4.11,0 7.45,-3.34 7.45,-7.46 0,-4.12 -3.34,-7.46 -7.45,-7.46"
         style="fill:#93b5f5;fill-opacity:1;fill-rule:nonzero;stroke:none;stroke-width:0.1"
         id="path176" />
      <path
         d="m 1451.9779,-1565.4574 h -161.345 c -3.833,0 -6.94,3.11 -6.94,6.94 v 1.04 c 0,3.83 3.107,6.94 6.94,6.94 h 156.315 c 1.96,-4.89 3.63,-9.87 5.03,-14.92"
         style="fill:#93b5f5;fill-opacity:1;fill-rule:nonzero;stroke:none;stroke-width:0.1"
         id="path178" />
      <path
         d="m 1456.9179,-1596.7374 h -18.33 c -4.12,0 -7.46,3.34 -7.46,7.46 0,4.12 3.34,7.46 7.46,7.46 h 16.87 c 0.55,-3.62 0.96,-7.26 1.23,-10.9 0.09,-1.34 0.17,-2.68 0.23,-4.02"
         style="fill:#93b5f5;fill-opacity:1;fill-rule:nonzero;stroke:none;stroke-width:0.1"
         id="path180" />
      <path
         d="m 1398.6879,-1717.2474 h -105.967 c -4.986,0 -9.028,4.04 -9.028,9.02 v 3.8 c 0,4.99 4.042,9.03 9.028,9.03 h 129.847 c -1.23,-1.4 -2.48,-2.8 -3.77,-4.16 -6.25,-6.64 -12.99,-12.54 -20.11,-17.69"
         style="fill:#d6b3a0;fill-opacity:1;fill-rule:nonzero;stroke:none;stroke-width:0.1"
         id="path182" />
      <path
         d="m 1316.1899,-1743.9074 c -2.03,0 -4.059,0.05 -6.088,0.14 2.024,-0.09 4.048,-0.13 6.073,-0.13 10.954,0 21.908,1.27 32.61,3.8 17.663,4.19 34.663,11.81 49.903,22.85 7.12,5.15 13.86,11.05 20.11,17.69 1.29,1.36 2.54,2.76 3.77,4.16 24.54,28.23 35.92,63.72 34.35,98.66 -0.06,1.34 -0.14,2.68 -0.23,4.02 2.78,-37.97 -9.75,-76.93 -37.89,-106.84 -19.62,-20.86 -44.1,-34.4 -70.017,-40.55 -10.695,-2.53 -21.643,-3.8 -32.591,-3.8 m -81.17,25.74 c -5.318,3.76 -10.441,7.94 -15.321,12.53 -56.654,53.3 -59.372,142.44 -6.064,199.1 1.918,2.04 3.884,4.01 5.892,5.91 -2.008,-1.9 -3.972,-3.87 -5.889,-5.91 -53.313,-56.67 -50.59,-145.8 6.066,-199.1 4.879,-4.59 9.998,-8.77 15.316,-12.53 m 180.968,214.54 c -0.03,0.02 -0.04,0.04 -0.07,0.06 0.02,-0.02 0.05,-0.04 0.07,-0.06 m -0.16,0.16 c -1.01,1.01 -2.05,2.01 -3.1,3 -0.26,0.25 -0.53,0.5 -0.8,0.74 -0.91,0.85 -1.84,1.69 -2.77,2.51 1.2,-1.06 2.39,-2.14 3.57,-3.25 1.05,-0.99 2.09,-1.99 3.1,-3"
         style="fill:#698ebf;fill-opacity:1;fill-rule:nonzero;stroke:none;stroke-width:0.1"
         id="path184" />
      <path
         d="m 1032.8389,-1787.7874 c -107.50502,76.6 -98.56502,178.83 -98.56502,178.83 39.293,-22.17 78.28202,-71.17 96.17102,-113.67 1.05,-24.34 1.94,-47.91 2.394,-65.16"
         style="fill:#95b3ef;fill-opacity:1;fill-rule:nonzero;stroke:none;stroke-width:0.1"
         id="path186" />
      <path
         d="m 1138.9429,-1752.9074 c 7.58,1.75 12.672,7.49 13.73,8.49 0,0 3.233,-0.22 -0.53,-7.12 -0.315,-0.58 -1.014,-2.06 -1.541,-3.11 -0.216,-0.43 0.084,-0.92 0.562,-0.96 4.375,-0.33 8.772,1.4 17.201,-0.36 1.163,-0.24 1.501,-3.03 1.456,-4.21 -0.076,-2.01 0.069,-4.27 -2.265,-7.35 -1.357,-1.79 -5.147,-3.72 -13.584,-7.11 -3.215,-1.29 -12.405,-0.32 -21.02,2.64 l -6.882,3.19 2.134,12.79 1.729,-0.36 c 2.746,-0.58 6.147,2.77 9.01,3.47"
         style="fill:#ffb27d;fill-opacity:1;fill-rule:nonzero;stroke:none;stroke-width:0.1"
         id="path188" />
      <path
         d="m 967.63788,-1561.5274 c 0,0 -96.596,-18.39 28.418,-158.27 19.99502,-22.37 128.01702,-51.5 128.01702,-51.5 0,0 10.956,9.32 5.432,16.87 0,0 -74.376,54.01 -90.74,62.59 -7.362,3.87 -28.572,86.21 -40.57302,106.04 -12.001,19.83 -30.554,24.27 -30.554,24.27"
         style="fill:#afcdfb;fill-opacity:1;fill-rule:nonzero;stroke:none;stroke-width:0.1"
         id="path190" />
      <path
         d="m 1153.8089,-1613.6974 c 0,0 3.161,6.04 3.777,9.22 0.616,3.18 4.595,12.47 6.234,14.11 0.657,0.66 2.819,-0.19 3.074,-3.01 0.112,-1.22 -0.489,-3.45 -1.551,-6.11 -1.728,-4.32 -1.443,-10.18 -2.044,-12.14 -1.496,-4.86 -9.49,-2.07 -9.49,-2.07"
         style="fill:#ffb27d;fill-opacity:1;fill-rule:nonzero;stroke:none;stroke-width:0.1"
         id="path192" />
      <path
         d="m 2445.3478,-1429.3274 -54.69,-12.72 -27.04,-49.21 -20.65,112.14 102.38,-50.21"
         style="fill:#233862;fill-opacity:1;fill-rule:nonzero;stroke:none;stroke-width:0.1"
         id="path194" />
      <path
         d="m 2422.6078,-1477.3474 -7.97,-6.04 -34.93,46.1 7.97,6.04 34.93,-46.1"
         style="fill:#233862;fill-opacity:1;fill-rule:nonzero;stroke:none;stroke-width:0.1"
         id="path196" />
      <path
         d="m 2265.0278,-1947.6174 c 0,0 22.61,26.55 1.26,43.29 0,0 -15.58,9.37 -28.26,8.57 0,0 18.06,-30.08 12.26,-33.1 -5.81,-3.01 -17.72,34.97 -17.72,34.97 0,0 -35.4,3.32 -46.77,-2.19 0,0 30.34,-24.67 23.97,-26.16 -6.37,-1.49 -39.13,22.71 -39.13,22.71 0,0 -32.93,-5.71 -31.11,-25.81 1.82,-20.09 13.19,-26.26 18.18,-25.71 4.99,0.55 34.14,11.79 34.79,7.7 0.64,-4.08 -16.88,-17.5 -29.18,-18.16 0,0 23.31,-25.54 38.72,-18.1 15.41,7.44 16.69,19.16 26.3,23.59 9.61,4.42 17.82,4.44 13.86,-0.06 -3.95,-4.49 -21.35,-8.9 -26.83,-18.66 -5.47,-9.75 -10.38,-16.33 5.58,-13.87 15.96,2.45 41.88,14.22 42.98,27.6 1.1,13.39 1.1,13.39 1.1,13.39"
         style="fill:#82b378;fill-opacity:1;fill-rule:nonzero;stroke:none;stroke-width:0.1"
         id="path198" />
      <path
         d="m 2155.7178,-1925.8274 c 0,0 89.47,3.74 109.31,-21.79 0,0 4.41,-13.08 17.89,-24.95 l 2.12,-5.71 c 0,0 -15.56,16.3 -21.11,17.27 0,0 8.58,31.73 -108.21,35.18"
         style="fill:#82b378;fill-opacity:1;fill-rule:nonzero;stroke:none;stroke-width:0.1"
         id="path200" />
      <path
         d="m 2282.9178,-1972.5674 c 0,0 19.26,-14.14 20.67,-39.52 l -3.49,-0.32 c 0,0 -6.21,26.22 -17.33,36.45 -11.12,10.22 0.15,3.39 0.15,3.39"
         style="fill:#82b378;fill-opacity:1;fill-rule:nonzero;stroke:none;stroke-width:0.1"
         id="path202" />
      <path
         d="m 2384.9978,-1877.5974 c 0,0 -36.17,20.1 -19.41,47.59 0,0 13.43,16.89 27.85,21.27 0,0 -7.57,-40.94 0.14,-41.88 7.7,-0.93 5.15,46.23 5.15,46.23 0,0 37.96,18.41 52.89,17.01 0,0 -23.46,-40.02 -15.76,-39.04 7.7,0.99 34.04,41.51 34.04,41.51 0,0 38.96,7.34 45.29,-15.74 6.33,-23.09 -3.74,-34.67 -9.51,-36.13 -5.77,-1.47 -42.83,-1.1 -41.85,-5.91 0.97,-4.81 26.03,-12.43 39.97,-8.06 0,0 -15.28,-38.07 -35.5,-36.21 -20.22,1.86 -26.52,14.36 -39.04,15.28 -12.52,0.92 -21.65,-2.48 -15.38,-5.83 6.27,-3.34 27.44,-1.01 37.57,-9.57 10.14,-8.56 18.34,-13.83 -0.42,-17.74 -18.76,-3.91 -52.46,-1.61 -59.25,12.8 -6.78,14.42 -6.78,14.42 -6.78,14.42"
         style="fill:#a8d29f;fill-opacity:1;fill-rule:nonzero;stroke:none;stroke-width:0.1"
         id="path204" />
      <path
         d="m 2497.4078,-1807.9274 c 0,0 -100.98,-33.05 -112.41,-69.67 0,0 0.53,-16.36 -9.52,-35.16 l 0.03,-7.22 c 0,0 10.51,24.58 16.27,27.96 0,0 -22.72,31.7 105.63,84.09"
         style="fill:#82b378;fill-opacity:1;fill-rule:nonzero;stroke:none;stroke-width:0.1"
         id="path206" />
      <path
         d="m 2375.4778,-1912.7574 c 0,0 -15.51,-23.72 -6.53,-52.51 l 4,1.09 c 0,0 -3.99,31.72 4.12,47.71 8.1,15.99 -1.59,3.71 -1.59,3.71"
         style="fill:#82b378;fill-opacity:1;fill-rule:nonzero;stroke:none;stroke-width:0.1"
         id="path208" />
      <path
         d="m 2327.4778,-1849.8974 c 0,0 47.5,26.8 25.18,62.89 0,0 -17.84,22.16 -36.89,27.8 0,0 10.32,-53.89 0.18,-55.19 -10.15,-1.31 -7.18,60.88 -7.18,60.88 0,0 -50.2,23.95 -69.86,21.99 0,0 31.26,-52.56 21.1,-51.33 -10.16,1.24 -45.22,54.42 -45.22,54.42 0,0 -51.42,9.36 -59.57,-21.12 -8.16,-30.48 5.22,-45.67 12.84,-47.55 7.62,-1.88 56.47,-1.09 55.22,-7.44 -1.25,-6.35 -34.21,-16.6 -52.63,-10.95 0,0 20.46,-50.06 47.1,-47.44 26.64,2.63 34.84,19.15 51.33,20.47 16.49,1.32 28.56,-3.08 20.33,-7.55 -8.23,-4.47 -36.16,-1.57 -49.45,-12.94 -13.29,-11.37 -24.05,-18.38 0.71,-23.38 24.76,-5 69.16,-1.68 77.99,17.38 8.82,19.06 8.82,19.06 8.82,19.06"
         style="fill:#a8d29f;fill-opacity:1;fill-rule:nonzero;stroke:none;stroke-width:0.1"
         id="path210" />
      <path
         d="m 2178.7178,-1759.0074 c 0,0 133.38,-42.72 148.76,-90.89 0,0 -0.57,-21.57 12.83,-46.28 l 0.03,-9.51 c 0,0 -14.06,32.31 -21.68,36.73 0,0 29.68,41.97 -139.94,109.95"
         style="fill:#82b378;fill-opacity:1;fill-rule:nonzero;stroke:none;stroke-width:0.1"
         id="path212" />
      <path
         d="m 2340.3078,-1896.1774 c 0,0 20.65,-31.13 9.06,-69.15 l -5.29,1.4 c 0,0 5,41.85 -5.82,62.86 -10.82,21.01 2.05,4.89 2.05,4.89"
         style="fill:#82b378;fill-opacity:1;fill-rule:nonzero;stroke:none;stroke-width:0.1"
         id="path214" />
      <path
         d="m 2708.4578,-2214.8674 h -487.69 c -67.99,77.78 -50.04,182.85 40.21,271.47 11.35,11.14 33.12,19.04 56.59,24.62 43.27,10.27 92.33,12.64 92.71,12.84 0.14,0.06 25.93,20.96 41.44,39.75 48.2,58.35 89.2,53.34 89.2,53.34 49.13,9.56 91.04,12.36 122.11,-4.93 v -0.02 c 28.78,-16.04 48.27,-49.35 55.56,-110.57 1.38,-11.57 2.33,-24.15 2.82,-37.79 1.78,-49.68 11.57,-93.88 17.39,-131.3 h 0.01 c 8.42,-54.21 14.38,-95.43 -30.35,-117.41"
         style="fill:#ffa561;fill-opacity:1;fill-rule:nonzero;stroke:none;stroke-width:0.1"
         id="path216" />
      <path
         d="m 2638.6778,-1880.1874 c -29.81,-16.24 -33.11,-69.73 -79.76,-83.55 -46.66,-13.82 -125.86,-12.56 -170.79,-61.29 -43.34,-47.01 -91.14,72.6 -70.56,106.25 43.27,10.27 92.33,12.64 92.71,12.84 0.14,0.06 25.93,20.96 41.44,39.75 48.2,58.35 89.2,53.34 89.2,53.34 49.13,9.56 91.04,12.36 122.11,-4.93 v -0.02 c 34.23,-35.36 5.46,-46.15 -24.35,-62.39"
         style="fill:#f4904d;fill-opacity:1;fill-rule:nonzero;stroke:none;stroke-width:0.1"
         id="path218" />
      <path
         d="m 2316.0178,-2111.4674 c 0,0 8.58,-22.77 6.8,-31.24 -1.78,-8.46 1.19,-24.84 -2.25,-32.19 -3.44,-7.34 -9.58,-18.01 -3.64,-20.69 2.25,-1.02 28.38,19.38 29.87,25.38 1.48,6 2.59,23.7 7.57,33.31 4.99,9.62 0.76,17.35 -6.5,20.86 -7.26,3.51 -17.42,22.82 -17.42,22.82 l -14.43,-18.25"
         style="fill:#f9ddbf;fill-opacity:1;fill-rule:nonzero;stroke:none;stroke-width:0.1"
         id="path220" />
      <path
         d="m 2455.6878,-1895.5774 c 0,0 -142.69,8.81 -161.08,-10.11 -19.37,-19.94 12.19,-216.08 12.19,-216.08 0,0 38.7,-1.11 41.74,9.14 0,0 -7.26,94.96 -1.22,111.39 6.04,16.42 2.21,39.15 2.21,39.15 0,0 75.71,-11.3 99.72,-5.54 24.02,5.75 6.44,72.05 6.44,72.05"
         style="fill:#233862;fill-opacity:1;fill-rule:nonzero;stroke:none;stroke-width:0.1"
         id="path222" />
      <path
         d="m 2490.2578,-1790.8374 c -0.01,-0.12 -21.03,-49.08 -31.29,-54.3 -10.26,-5.22 -47.39,-47.92 -55.36,-47.18 -7.96,0.74 8.23,-8.72 8.23,-8.72 0,0 66.01,32.2 69.79,34.08 3.77,1.87 23.65,34.59 26.37,51.2 2.73,16.61 -17.74,24.92 -17.74,24.92"
         style="fill:#ffb27d;fill-opacity:1;fill-rule:nonzero;stroke:none;stroke-width:0.1"
         id="path224" />
      <path
         d="m 2289.6678,-2149.0574 c 0,0 -8.13,-22.93 -14.95,-28.25 -6.82,-5.32 -15.12,-19.75 -22.49,-23.14 -7.36,-3.39 -18.95,-7.58 -16.14,-13.46 1.07,-2.23 34.2,-3.51 39.2,0.12 5.01,3.63 17.27,16.43 27.29,20.56 10.01,4.14 11.77,12.77 8.48,20.13 -3.28,7.37 1.42,28.67 1.42,28.67 l -22.81,-4.63"
         style="fill:#f9ddbf;fill-opacity:1;fill-rule:nonzero;stroke:none;stroke-width:0.1"
         id="path226" />
      <path
         d="m 2533.2378,-1769.0974 c -3.05,3.52 74.22,-5.16 84.5,-44.63 0,0 59.35,46.78 4.91,86.2 -18.85,13.65 -20.75,28.22 -23.48,41.55 -2.73,13.34 -21.55,51.65 -54.17,32.62 0,0 -14.91,-0.07 -24.34,-8.25 -21.45,-18.59 -44.85,-136.75 12.58,-107.49"
         style="fill:#163560;fill-opacity:1;fill-rule:nonzero;stroke:none;stroke-width:0.1"
         id="path228" />
      <path
         d="m 2518.1978,-1902.4974 c 0,0 -155.13,-15.83 -168.76,-31.67 -13.63,-15.84 -67.15,-221.77 -67.15,-221.77 0,0 15.84,-8.82 30.23,-0.56 0,0 41.02,69.86 59.17,91.8 18.15,21.93 24.92,89.64 27.92,90.34 3,0.69 100.22,-13.54 133.69,12.17 33.47,25.71 -15.1,59.69 -15.1,59.69"
         style="fill:#2a4e96;fill-opacity:1;fill-rule:nonzero;stroke:none;stroke-width:0.1"
         id="path230" />
      <path
         d="m 2604.5478,-1761.6874 c 0,0 -37.01,16.52 -83.94,8.94 -9.58,-1.55 -18.22,-4.7 -25.07,-16 -9.69,-15.96 -14.22,-24.53 -14.22,-24.53 0,0 0.94,-7.39 14.17,-13.28 -3.6,-13.23 3.31,-36.33 -3.04,-45.3 -6.36,-8.97 -45.78,-31.21 -47.72,-43.57 -3.58,-22.72 67.39,-63.88 88.55,-59.48 60.88,12.67 102.18,175.83 71.27,193.22"
         style="fill:#f9ddbf;fill-opacity:1;fill-rule:nonzero;stroke:none;stroke-width:0.1"
         id="path232" />
      <path
         d="m 2583.5878,-1714.8874 c 0,0 7.29,14.35 8.26,26.13 0.68,8.41 -6.43,38.66 -36.81,31.34 0,0 -8.86,-1.73 -16.74,-8.21 -6.26,-5.15 -14.99,-15.81 -1.66,-41.54 l 3.65,-8.77 43.3,1.05"
         style="fill:#163560;fill-opacity:1;fill-rule:nonzero;stroke:none;stroke-width:0.1"
         id="path234" />
      <path
         d="m 2541.9478,-1763.3174 c -3.07,-3.24 -1.86,-14.02 12.52,-13.21 9.44,0.54 29.67,12.21 27.77,20.28 -0.9,3.83 -8.16,13.72 -9.87,36.47 l -1.72,-0.48 -28.81,-8.11 c 0,0 1.39,-9.16 2.09,-17.84 0.6,-7.28 -0.71,-15.77 -1.98,-17.11"
         style="fill:#ffb27d;fill-opacity:1;fill-rule:nonzero;stroke:none;stroke-width:0.1"
         id="path236" />
      <path
         d="m 2541.8378,-1728.3674 c 0,0 1.39,-9.16 2.09,-17.84 16.35,1.76 23.83,17.38 26.72,25.95 l -28.81,-8.11"
         style="fill:#f4a269;fill-opacity:1;fill-rule:nonzero;stroke:none;stroke-width:0.1"
         id="path238" />
      <path
         d="m 2541.2278,-1741.6874 c 0,0 37.7,9.49 31.42,32.88 -6.27,23.39 -5.63,40.37 -29.97,35.3 -24.34,-5.08 -26.61,-15.25 -26.41,-23.57 0.2,-8.32 14.99,-46.48 24.96,-44.61"
         style="fill:#ffb27d;fill-opacity:1;fill-rule:nonzero;stroke:none;stroke-width:0.1"
         id="path240" />
      <path
         d="m 2525.4278,-1677.5474 c 0,0 12.66,-24.12 36.55,-26.71 13.98,-1.52 17.81,-10.72 17.81,-10.72 0,0 -4.2,26.32 -11.23,42.43 0,0 -38.9,10.15 -43.13,-5"
         style="fill:#163560;fill-opacity:1;fill-rule:nonzero;stroke:none;stroke-width:0.1"
         id="path242" />
      <path
         d="m 2529.7478,-1680.7374 c 0,0 -8.26,-8.43 -10.8,-14.37 -3.77,-8.8 3.59,-27.33 6.63,-31.33 0,0 -17.56,29.77 -11.7,42.66 6.22,13.67 15.87,3.04 15.87,3.04"
         style="fill:#163560;fill-opacity:1;fill-rule:nonzero;stroke:none;stroke-width:0.1"
         id="path244" />
      <path
         d="m 2414.8178,-1897.9174 c 0,0 -7.51,-7.96 -8.42,-8.39 -4.96,-2.32 -11.24,-0.97 -14.27,-1.73 -3.03,-0.76 -2.51,1.12 -0.27,2.65 2.23,1.54 7.73,0.94 5.49,1.5 -2.25,0.55 -14.39,2.81 -18.96,1.59 -7.24,-1.94 -12.95,0.33 -13.4,1.07 -0.45,0.74 16.52,9.04 21.37,8.76 4.85,-0.27 18.79,0.4 18.79,0.4 l 9.67,-5.85"
         style="fill:#ffb27d;fill-opacity:1;fill-rule:nonzero;stroke:none;stroke-width:0.1"
         id="path246" />
      <path
         d="m 2617.3078,-1776.3474 c 0,0 46.79,-105.62 33.79,-121.13 -12.9,-15.4 -102.94,3.3 -102.94,3.3 l 2.78,9.81 c 0,0 66.21,4.05 70.93,5.39 6.78,1.92 -33.55,76 -33.55,76 l 28.99,26.63"
         style="fill:#ffb27d;fill-opacity:1;fill-rule:nonzero;stroke:none;stroke-width:0.1"
         id="path248" />
      <path
         d="m 2599.8578,-1759.9574 c 1.12,-0.02 15.1,-4.61 25.15,-24.48 9.87,-19.52 13.46,-29 13.46,-29 0,0 -43.74,-33.91 -61.14,-21.44 -17.4,12.48 6.48,75.34 22.53,74.92"
         style="fill:#f9ddbf;fill-opacity:1;fill-rule:nonzero;stroke:none;stroke-width:0.1"
         id="path250" />
      <path
         d="m 2558.6678,-1883.8874 c 0,0 -7.52,4.88 -10.56,7.55 -3.04,2.66 -20.66,4.83 -20.65,3.05 0.01,-1.78 10.26,-4.2 11.38,-5.98 1.12,-1.78 7.39,-9.11 12.73,-9.1 5.35,0.02 7.1,4.48 7.1,4.48"
         style="fill:#ffb27d;fill-opacity:1;fill-rule:nonzero;stroke:none;stroke-width:0.1"
         id="path252" />
      <path
         d="m 2538.1278,-1899.7574 -20.18,2.87 c -3.02,0.42 -6.07,2.94 -6.83,5.62 l -11.14,39.4 c -0.76,2.68 1.07,4.5 4.08,4.07 l 20.18,-2.86 c 3.02,-0.43 6.08,-2.95 6.83,-5.63 l 11.15,-39.4 c 0.75,-2.68 -1.08,-4.5 -4.09,-4.07"
         style="fill:#1f4a91;fill-opacity:1;fill-rule:nonzero;stroke:none;stroke-width:0.1"
         id="path254" />
      <path
         d="m 2533.9278,-1899.1674 -20.18,2.87 c -3.02,0.43 -6.07,2.95 -6.83,5.63 l -11.14,39.4 c -0.76,2.68 1.07,4.5 4.08,4.07 l 20.18,-2.87 c 3.02,-0.43 6.08,-2.94 6.83,-5.62 l 11.15,-39.4 c 0.75,-2.68 -1.08,-4.5 -4.09,-4.08"
         style="fill:#233862;fill-opacity:1;fill-rule:nonzero;stroke:none;stroke-width:0.1"
         id="path256" />
      <path
         d="m 2499.2178,-1852.2274 c -0.31,1.12 0.45,1.87 1.7,1.7 1.25,-0.18 2.52,-1.23 2.84,-2.34 0.31,-1.11 -0.45,-1.87 -1.7,-1.69 -1.25,0.18 -2.52,1.22 -2.84,2.33"
         style="fill:#1f4a91;fill-opacity:1;fill-rule:nonzero;stroke:none;stroke-width:0.1"
         id="path258" />
      <path
         d="m 2548.1578,-1894.1774 c 0,0 -13.65,-0.19 -17.07,0.62 -3.43,0.81 -12.17,11.67 -9.84,14.38 1.47,1.72 9.63,-1.35 13.51,-1.34 3.89,0.01 13.99,5.63 20.89,-5.87 0.78,-1.3 -7.49,-7.79 -7.49,-7.79"
         style="fill:#ffb27d;fill-opacity:1;fill-rule:nonzero;stroke:none;stroke-width:0.1"
         id="path260" />
      <path
         d="m 2606.7478,-1920.1474 c 0,0 -14.69,-13.77 -76.19,-15.75 -61.5,-1.98 -141.68,-69.94 -142.43,-89.13 -0.75,-19.18 123.84,-48.34 125.76,-45.59 1.93,2.75 79,68.95 79,68.95 l 13.86,81.52"
         style="fill:#ffa561;fill-opacity:1;fill-rule:nonzero;stroke:none;stroke-width:0.1"
         id="path262" />
      <path
         d="m 2738.7978,-2097.4574 c -68.42,85.41 -208.97,-31.02 -245.34,-27.73 -33.44,3.02 65.21,119.75 187.54,137.12 49.46,7.02 37.61,58.12 37.59,59.7 1.38,-11.57 2.33,-24.15 2.82,-37.79 1.78,-49.68 11.57,-93.88 17.39,-131.3"
         style="fill:#f4904d;fill-opacity:1;fill-rule:nonzero;stroke:none;stroke-width:0.1"
         id="path264" />
      <path
         d="m 1953.9578,-921.54742 133.24,-27.56 -85.42,66.37 -5.75,-19.21 -33.06,-3.88 -9.01,-15.72"
         style="fill:#95b3ef;fill-opacity:1;fill-rule:nonzero;stroke:none;stroke-width:0.1"
         id="path268" />
      <path
         d="m 2087.1978,-949.10742 -108.27,64.66 -109.31,12.35 z"
         style="fill:#f9ddbf;fill-opacity:1;fill-rule:nonzero;stroke:none;stroke-width:0.1"
         id="path270" />
      <path
         d="m 2001.7778,-882.73742 85.42,-66.37 -63.13,99.34 z"
         style="fill:#f9ddbf;fill-opacity:1;fill-rule:nonzero;stroke:none;stroke-width:0.1"
         id="path272" />
      <path
         d="m 1116.7039,-1296.5174 -133.23802,-27.57 85.41802,66.38 5.754,-19.21 33.062,-3.88 9.004,-15.72"
         style="fill:#95b3ef;fill-opacity:1;fill-rule:nonzero;stroke:none;stroke-width:0.1"
         id="path274" />
      <path
         d="m 983.46588,-1324.0874 108.27302,64.66 109.302,12.36 z"
         style="fill:#f9ddbf;fill-opacity:1;fill-rule:nonzero;stroke:none;stroke-width:0.1"
         id="path276" />
      <path
         d="m 1068.8839,-1257.7074 -85.41802,-66.38 63.13302,99.35 z"
         style="fill:#f9ddbf;fill-opacity:1;fill-rule:nonzero;stroke:none;stroke-width:0.1"
         id="path278" />
      <path
         d="m 1335.0109,-1335.0174 3.897,4.63 c 3.528,-3.05 7.056,-4.79 11.638,-4.79 4.002,0 6.53,1.84 6.53,4.74 0,2.64 -1.475,4.06 -8.32,5.69 -7.847,1.84 -12.271,4.16 -12.271,11.06 0,6.32 5.266,10.69 12.586,10.69 5.372,0 9.637,-1.63 13.377,-4.64 l -3.476,-4.89 c -3.318,2.47 -6.635,3.79 -10.006,3.79 -3.792,0 -6.003,-1.95 -6.003,-4.48 0,-2.84 1.685,-4.11 8.741,-5.79 7.794,-1.9 11.854,-4.69 11.854,-10.9 0,-6.9 -5.428,-11.01 -13.17,-11.01 -5.635,0 -10.954,1.95 -15.377,5.9"
         style="fill:#739af0;fill-opacity:1;fill-rule:nonzero;stroke:none;stroke-width:0.1"
         id="path280" />
      <path
         d="m 1389.5179,-1324.5374 c -0.42,4.11 -2.85,7.32 -7.06,7.32 -3.9,0 -6.63,-3 -7.21,-7.32 z m -20.59,-1.95 c 0,7.95 5.63,14.48 13.58,14.48 8.85,0 13.33,-6.95 13.33,-14.95 0,-0.42 -0.05,-1.48 -0.11,-1.79 h -20.43 c 0.68,-4.53 3.9,-7.06 8,-7.06 3.11,0 5.32,1.16 7.54,3.32 l 3.73,-3.32 c -2.63,-3.16 -6.26,-5.21 -11.37,-5.21 -8.06,0 -14.27,5.84 -14.27,14.53"
         style="fill:#739af0;fill-opacity:1;fill-rule:nonzero;stroke:none;stroke-width:0.1"
         id="path282" />
      <path
         d="m 1419.4279,-1328.7474 c -1.63,0.63 -3.9,1.1 -6.37,1.1 -4,0 -6.37,-1.63 -6.37,-4.42 0,-2.63 2.37,-4.11 5.37,-4.11 4.21,0 7.37,2.37 7.37,5.85 z m -0.16,-11.64 v 3.42 c -1.89,-2.26 -4.79,-4 -9,-4 -5.27,0 -9.9,3 -9.9,8.69 0,6.16 4.79,9.11 11.27,9.11 3.37,0 5.53,-0.48 7.68,-1.16 v 0.53 c 0,3.84 -2.42,5.95 -6.84,5.95 -3.11,0 -5.43,-0.69 -7.95,-1.74 l -1.74,5.11 c 3.05,1.37 6.06,2.32 10.58,2.32 8.22,0 12.22,-4.32 12.22,-11.75 v -16.48 h -6.32"
         style="fill:#739af0;fill-opacity:1;fill-rule:nonzero;stroke:none;stroke-width:0.1"
         id="path284" />
      <path
         d="m 1433.1679,-1312.5874 h 6.38 v -6.26 c 1.74,4.16 4.95,7 9.84,6.79 v -6.74 h -0.36 c -5.59,0 -9.48,-3.63 -9.48,-11.01 v -10.58 h -6.38 v 27.8"
         style="fill:#739af0;fill-opacity:1;fill-rule:nonzero;stroke:none;stroke-width:0.1"
         id="path286" />
      <path
         d="m 1452.4479,-1326.5374 c 0,7.9 6.11,14.53 14.43,14.53 5.27,0 8.53,-1.94 11.11,-4.79 l -3.95,-4.26 c -1.95,2.05 -4,3.47 -7.21,3.47 -4.64,0 -8.01,-4 -8.01,-8.95 0,-4.95 3.43,-8.95 8.32,-8.95 3,0 5.22,1.42 7.22,3.47 l 3.84,-3.79 c -2.74,-3.05 -5.95,-5.21 -11.37,-5.21 -8.27,0 -14.38,6.47 -14.38,14.48"
         style="fill:#739af0;fill-opacity:1;fill-rule:nonzero;stroke:none;stroke-width:0.1"
         id="path288" />
      <path
         d="m 1484.0479,-1301.9474 h 6.37 v -14.95 c 1.79,2.63 4.37,4.89 8.69,4.89 6.27,0 9.9,-4.21 9.9,-10.69 v -17.69 h -6.37 v 15.8 c 0,4.32 -2.16,6.79 -5.95,6.79 -3.69,0 -6.27,-2.58 -6.27,-6.9 v -15.69 h -6.37 v 38.44"
         style="fill:#739af0;fill-opacity:1;fill-rule:nonzero;stroke:none;stroke-width:0.1"
         id="path290" />
      <path
         d="m 1516.2779,-1333.1774 h 7 v -7.21 h -7 v 7.21"
         style="fill:#739af0;fill-opacity:1;fill-rule:nonzero;stroke:none;stroke-width:0.1"
         id="path292" />
      <path
         d="m 1530.4379,-1333.1774 h 7.01 v -7.21 h -7.01 v 7.21"
         style="fill:#739af0;fill-opacity:1;fill-rule:nonzero;stroke:none;stroke-width:0.1"
         id="path294" />
      <path
         d="m 1544.6079,-1333.1774 h 7 v -7.21 h -7 v 7.21"
         style="fill:#739af0;fill-opacity:1;fill-rule:nonzero;stroke:none;stroke-width:0.1"
         id="path296" />
      <path
         d="m 1558.7779,-1333.1774 h 7 v -7.21 h -7 v 7.21"
         style="fill:#739af0;fill-opacity:1;fill-rule:nonzero;stroke:none;stroke-width:0.1"
         id="path298" />
      <path
         d="m 1927.1578,-1679.5574 c 0,3.77 3.06,6.82 6.82,6.82 3.77,0 6.83,-3.05 6.83,-6.82 0,-3.76 -3.06,-6.82 -6.83,-6.82 -3.76,0 -6.82,3.06 -6.82,6.82"
         style="fill:#d7e5ff;fill-opacity:1;fill-rule:nonzero;stroke:none;stroke-width:0.1"
         id="path300" />
      <path
         d="m 2244.3278,-1681.3874 h -308.51 c -1.01,0 -1.84,0.82 -1.84,1.83 0,1.02 0.83,1.84 1.84,1.84 h 308.51 c 1.01,0 1.83,-0.82 1.83,-1.84 0,-1.01 -0.82,-1.83 -1.83,-1.83"
         style="fill:#d7e5ff;fill-opacity:1;fill-rule:nonzero;stroke:none;stroke-width:0.1"
         id="path302" />
    </g>
  </g>
</svg>
