<?xml version="1.0" encoding="UTF-8" standalone="no"?>
<!-- Created with Inkscape (http://www.inkscape.org/) -->

<svg
   width="104.37845mm"
   height="144.4231mm"
   viewBox="0 0 104.37845 144.4231"
   version="1.1"
   id="svg5"
   xml:space="preserve"
   xmlns:inkscape="http://www.inkscape.org/namespaces/inkscape"
   xmlns:sodipodi="http://sodipodi.sourceforge.net/DTD/sodipodi-0.dtd"
   xmlns="http://www.w3.org/2000/svg"
   xmlns:svg="http://www.w3.org/2000/svg"><sodipodi:namedview
     id="namedview7"
     pagecolor="#ffffff"
     bordercolor="#000000"
     borderopacity="0.25"
     inkscape:showpageshadow="2"
     inkscape:pageopacity="0.0"
     inkscape:pagecheckerboard="0"
     inkscape:deskcolor="#d1d1d1"
     inkscape:document-units="mm"
     showgrid="false" /><defs
     id="defs2" /><g
     inkscape:label="Layer 1"
     inkscape:groupmode="layer"
     id="layer1"
     transform="translate(184.81578,-45.629023)"><path
       style="fill:#24009c;fill-opacity:1;stroke-width:0.282222"
       d="m -134.46101,189.65267 c -1.39734,-0.61435 -5.92159,-5.84206 -13.5807,-15.69233 -19.79745,-25.46124 -32.03497,-48.05113 -35.8292,-66.13906 -0.99285,-4.73313 -1.24194,-12.19224 -0.56217,-16.83427 1.74657,-11.92693 6.62237,-21.72165 14.96695,-30.06623 14.08705,-14.08705 34.72261,-18.90258 53.61493,-12.51163 7.66265,2.59214 14.25651,6.70394 20.064202,12.51163 8.34458,8.34458 13.22039,18.1393 14.96695,30.06623 0.67977,4.64203 0.43068,12.10114 -0.56217,16.83427 -3.79423,18.08793 -16.03175,40.67782 -35.829202,66.13906 -4.53639,5.83419 -9.10674,11.39438 -11.45827,13.93987 -1.90533,2.06249 -3.7894,2.63261 -5.79132,1.75246 z m 8.04334,-66.23446 c 3.1926,-0.73918 7.60495,-2.92308 10.32219,-5.10898 4.05971,-3.26587 7.45197,-8.44823 8.92481,-13.63444 0.54598,-1.92253 0.64119,-2.92829 0.64119,-6.77334 0,-3.85355 -0.094,-4.84221 -0.64113,-6.7437 -2.777,-9.65108 -9.98655,-16.58661 -19.74453,-18.99408 -2.59816,-0.64102 -8.82468,-0.64102 -11.42284,0 -8.17513,2.01695 -14.75355,7.35122 -18.16106,14.72634 -1.81093,3.91952 -2.2246,5.96714 -2.2246,11.01144 0,5.27837 0.45397,7.35083 2.53464,11.57111 3.89657,7.90354 11.66854,13.42759 20.45799,14.54084 2.52295,0.31956 6.44506,0.0689 9.31334,-0.59519 z"
       id="path316" /></g></svg>
