<?xml version="1.0" encoding="UTF-8" standalone="no"?>
<!-- Created with Inkscape (http://www.inkscape.org/) -->

<svg
   width="6.291554mm"
   height="6.2471924mm"
   viewBox="0 0 6.2915535 6.2471925"
   version="1.1"
   id="svg185"
   xml:space="preserve"
   inkscape:version="1.2.1 (9c6d41e410, 2022-07-14)"
   sodipodi:docname="akademia.svg.2022_10_24_16_04_43.0.svg"
   inkscape:export-filename="akademia.png"
   inkscape:export-xdpi="92"
   inkscape:export-ydpi="92"
   xmlns:inkscape="http://www.inkscape.org/namespaces/inkscape"
   xmlns:sodipodi="http://sodipodi.sourceforge.net/DTD/sodipodi-0.dtd"
   xmlns="http://www.w3.org/2000/svg"
   xmlns:svg="http://www.w3.org/2000/svg"><sodipodi:namedview
     id="namedview187"
     pagecolor="#ffffff"
     bordercolor="#000000"
     borderopacity="0.25"
     inkscape:showpageshadow="2"
     inkscape:pageopacity="1"
     inkscape:pagecheckerboard="0"
     inkscape:deskcolor="#d1d1d1"
     inkscape:document-units="mm"
     showgrid="false"
     inkscape:zoom="3.439032"
     inkscape:cx="621.105"
     inkscape:cy="1454.1883"
     inkscape:window-width="1920"
     inkscape:window-height="1011"
     inkscape:window-x="0"
     inkscape:window-y="32"
     inkscape:window-maximized="1"
     inkscape:current-layer="layer1" /><defs
     id="defs182" /><g
     inkscape:label="Layer 1"
     inkscape:groupmode="layer"
     id="layer1"
     transform="translate(-45.333449,-526.97253)"><rect
       style="fill:#ffffff;fill-opacity:1;stroke:none;stroke-width:0.303293"
       id="rect3880"
       width="212.63203"
       height="55.083557"
       x="-1.1243428"
       y="485.79794" /><path
       d="m 51.277857,526.97253 h -5.597089 c -0.191858,0 -0.347318,0.15436 -0.347318,0.34483 v 5.55782 c 0,0.19024 0.155181,0.34453 0.347318,0.34453 h 3.01372 v -2.41923 h -0.820456 v -0.9427 h 0.819813 v -0.69561 c 0,-0.80684 0.496405,-1.24633 1.221539,-1.24633 0.347317,0 0.645538,0.0256 0.73266,0.0372 v 0.84337 h -0.502692 c -0.394494,0 -0.470629,0.18642 -0.470629,0.45917 v 0.60224 h 0.940306 l -0.12253,0.94269 h -0.817915 v 2.41923 h 1.603737 c 0.191247,0 0.346683,-0.15436 0.346683,-0.34484 v -5.5575 c 3.02e-4,-0.19044 -0.154972,-0.34485 -0.346985,-0.34485 z"
       fill="#2c7566"
       fill-rule="nonzero"
       id="path11207-62"
       style="fill:#45009b;fill-opacity:1;stroke-width:0.313469"
       inkscape:export-filename="fb.svg"
       inkscape:export-xdpi="300"
       inkscape:export-ydpi="300" /></g></svg>
