<?xml version="1.0" encoding="UTF-8" standalone="no"?>
<!-- Created with Inkscape (http://www.inkscape.org/) -->

<svg
   width="9.2604218mm"
   height="7.2745099mm"
   viewBox="0 0 9.2604217 7.2745095"
   version="1.1"
   id="svg5"
   xml:space="preserve"
   inkscape:version="1.2.1 (9c6d41e410, 2022-07-14)"
   sodipodi:docname="g15510.svg"
   xmlns:inkscape="http://www.inkscape.org/namespaces/inkscape"
   xmlns:sodipodi="http://sodipodi.sourceforge.net/DTD/sodipodi-0.dtd"
   xmlns="http://www.w3.org/2000/svg"
   xmlns:svg="http://www.w3.org/2000/svg"><sodipodi:namedview
     id="namedview7"
     pagecolor="#ffffff"
     bordercolor="#000000"
     borderopacity="0.25"
     inkscape:showpageshadow="2"
     inkscape:pageopacity="0"
     inkscape:pagecheckerboard="0"
     inkscape:deskcolor="#d1d1d1"
     inkscape:document-units="mm"
     showgrid="false"
     inkscape:zoom="8.778679"
     inkscape:cx="15.207299"
     inkscape:cy="13.441658"
     inkscape:window-width="1920"
     inkscape:window-height="1011"
     inkscape:window-x="0"
     inkscape:window-y="32"
     inkscape:window-maximized="1"
     inkscape:current-layer="svg5"
     showguides="true"><sodipodi:guide
       position="-72.762823,200.50868"
       orientation="1,0"
       id="guide37940"
       inkscape:locked="false" /><sodipodi:guide
       position="270.42063,-119.16911"
       orientation="1,0"
       id="guide46831"
       inkscape:locked="false" /><sodipodi:guide
       position="176.9901,-590.4136"
       orientation="0,-1"
       id="guide47721"
       inkscape:locked="false" /><sodipodi:guide
       position="162.95397,-737.9339"
       orientation="0,-1"
       id="guide47792"
       inkscape:locked="false" /><sodipodi:guide
       position="141.52741,-1500.8499"
       orientation="0,-1"
       id="guide64899"
       inkscape:locked="false" /></sodipodi:namedview><defs
     id="defs2" /><g
     style="fill:#24009c;fill-opacity:1"
     id="g15510"
     transform="matrix(0.26458333,0,0,0.26458333,7.2260145e-8,-1.9165352e-6)"><path
       d="m 32.584345,22.441847 c 0,1.45419 -1.182519,2.637618 -2.636706,2.637618 H 5.053293 c -1.455106,0 -2.637626,-1.183428 -2.637626,-2.637618 V 5.0523625 c 0,-0.3536467 0.07093,-0.6907173 0.198013,-0.9992373 L 13.143879,16.000684 c 1.101467,1.249737 2.69012,1.968082 4.356134,1.968082 1.666919,0 3.254653,-0.718345 4.357039,-1.968082 L 32.386332,4.0531252 c 0.127067,0.30852 0.198013,0.6455906 0.198013,0.9992373 z M 29.947639,2.4156666 c 0.206293,0 0.406147,0.025787 0.599547,0.070907 L 20.045532,14.40374 c -0.643746,0.730318 -1.572079,1.149353 -2.545519,1.149353 -0.973454,0 -1.900854,-0.419035 -2.544614,-1.149353 L 4.452827,2.4865732 C 4.646227,2.4414532 4.847,2.4156662 5.053293,2.4156662 Z M 29.947639,0 H 5.053293 C 2.26648,0 0,2.2664719 0,5.0523625 V 22.441847 c 0,2.786812 2.26648,5.052367 5.053293,5.052367 h 24.894346 c 2.785893,0 5.052373,-2.265555 5.052373,-5.052367 V 5.0523625 C 35.000012,2.2664719 32.733532,0 29.947639,0"
       style="fill:#24009c;fill-opacity:1;fill-rule:nonzero;stroke:none;stroke-width:0.133333"
       id="path22" /></g></svg>
