<?xml version="1.0" encoding="UTF-8" standalone="no"?>
<!-- Created with Inkscape (http://www.inkscape.org/) -->

<svg
   width="6.2385449mm"
   height="6.1928101mm"
   viewBox="0 0 6.2385445 6.1928101"
   version="1.1"
   id="svg185"
   xml:space="preserve"
   inkscape:version="1.2.1 (9c6d41e410, 2022-07-14)"
   sodipodi:docname="akademia.svg.2022_10_24_16_04_43.0.svg"
   inkscape:export-filename="akademia.png"
   inkscape:export-xdpi="92"
   inkscape:export-ydpi="92"
   xmlns:inkscape="http://www.inkscape.org/namespaces/inkscape"
   xmlns:sodipodi="http://sodipodi.sourceforge.net/DTD/sodipodi-0.dtd"
   xmlns="http://www.w3.org/2000/svg"
   xmlns:svg="http://www.w3.org/2000/svg"><sodipodi:namedview
     id="namedview187"
     pagecolor="#ffffff"
     bordercolor="#000000"
     borderopacity="0.25"
     inkscape:showpageshadow="2"
     inkscape:pageopacity="1"
     inkscape:pagecheckerboard="0"
     inkscape:deskcolor="#d1d1d1"
     inkscape:document-units="mm"
     showgrid="false"
     inkscape:zoom="3.439032"
     inkscape:cx="621.105"
     inkscape:cy="1454.1883"
     inkscape:window-width="1920"
     inkscape:window-height="1011"
     inkscape:window-x="0"
     inkscape:window-y="32"
     inkscape:window-maximized="1"
     inkscape:current-layer="layer1" /><defs
     id="defs182" /><g
     inkscape:label="Layer 1"
     inkscape:groupmode="layer"
     id="layer1"
     transform="translate(-56.05685,-526.99982)"><rect
       style="fill:#ffffff;fill-opacity:1;stroke:none;stroke-width:0.303293"
       id="rect3880"
       width="212.63203"
       height="55.083557"
       x="-1.1243428"
       y="485.79794" /><path
       d="m 59.177089,527.55787 c 0.832789,0 0.931657,0.005 1.260693,0.018 0.845287,0.038 1.239828,0.43637 1.278518,1.26946 0.01603,0.32642 0.01796,0.42427 0.01796,1.25118 0,0.8275 -0.0046,0.92538 -0.01796,1.25178 -0.03856,0.83216 -0.43262,1.23106 -1.278812,1.26946 -0.328742,0.016 -0.427316,0.018 -1.260399,0.018 -0.83279,0 -0.931665,-0.005 -1.260067,-0.018 -0.84778,-0.0384 -1.24047,-0.43852 -1.278828,-1.26975 -0.01603,-0.32643 -0.01796,-0.4243 -0.01796,-1.25149 0,-0.82691 0.0046,-0.92476 0.01796,-1.25118 0.03856,-0.83309 0.432605,-1.23168 1.278828,-1.26976 0.328727,-0.016 0.427277,-0.018 1.260067,-0.018 z m 0,-0.55808 c -0.847122,0 -0.953182,0.005 -1.285967,0.018 -1.132528,0.0517 -1.762271,0.67577 -1.814062,1.80152 -0.01603,0.33044 -0.02021,0.43575 -0.02021,1.27689 0,0.84115 0.0046,0.94673 0.01796,1.27687 0.05219,1.12483 0.680582,1.74978 1.814364,1.80152 0.332823,0.016 0.438829,0.018 1.285982,0.018 0.847113,0 0.953491,-0.005 1.285966,-0.018 1.131901,-0.0518 1.76289,-0.67576 1.814062,-1.80152 0.01603,-0.33014 0.02021,-0.43572 0.02021,-1.27687 0,-0.84114 -0.0046,-0.94645 -0.01796,-1.27657 -0.05072,-1.12391 -0.679971,-1.74981 -1.81407,-1.80184 -0.332777,-0.016 -0.43914,-0.018 -1.286276,-0.018 z m 0,1.50668 a 1.6016325,1.5903012 0 1 0 0,3.1806 1.6016325,1.5903012 0 0 0 0,-3.1806 z m 0,2.62252 a 1.0395788,1.032224 0 1 1 0,-2.06444 1.0395788,1.032224 0 0 1 0,2.06444 z m 1.664936,-3.05671 a 0.3742861,0.37163811 0 1 0 0,0.74327 0.3742861,0.37163811 0 0 0 0,-0.74327 z"
       fill="#2c7566"
       fill-rule="nonzero"
       id="path7648-9"
       style="fill:#45009b;fill-opacity:1;stroke-width:0.3108" /></g></svg>
